STARTFONT 2.1
FONT -FontForge-New Science Medium-Medium-R-Normal--16-150-75-75-P-91-ISO10646-1
SIZE 15 75 75
FONTBOUNDINGBOX 20 22 -2 -4
COMMENT "Generated by fontforge, http://fontforge.sourceforge.net"
COMMENT "Copyright \(c\) 2023 by Newlyn Works Limited. All rights reserved."
STARTPROPERTIES 39
FOUNDRY "FontForge"
FAMILY_NAME "New Science Medium"
WEIGHT_NAME "Medium"
SLANT "R"
SETWIDTH_NAME "Normal"
ADD_STYLE_NAME ""
PIXEL_SIZE 16
POINT_SIZE 150
RESOLUTION_X 75
RESOLUTION_Y 75
SPACING "P"
AVERAGE_WIDTH 91
CHARSET_REGISTRY "ISO10646"
CHARSET_ENCODING "1"
FONTNAME_REGISTRY ""
CHARSET_COLLECTIONS "ISO8859-2 ISO8859-9 ISO8859-4 ISO10646-1"
FONT_NAME "NewScience-Medium"
FACE_NAME "New Science Medium"
COPYRIGHT "Copyright \(c\) 2023 by Newlyn Works Limited. All rights reserved."
FONT_VERSION "002.101"
FONT_ASCENT 13
FONT_DESCENT 3
UNDERLINE_POSITION -2
UNDERLINE_THICKNESS 2
X_HEIGHT 8
CAP_HEIGHT 11
RAW_ASCENT 803
RAW_DESCENT 196
NORM_SPACE 4
RELATIVE_WEIGHT 50
RELATIVE_SETWIDTH 50
SUPERSCRIPT_X 0
SUPERSCRIPT_Y 5
SUPERSCRIPT_SIZE 9
SUBSCRIPT_X 0
SUBSCRIPT_Y 1
SUBSCRIPT_SIZE 9
AVG_LOWERCASE_WIDTH 87
AVG_UPPERCASE_WIDTH 116
ENDPROPERTIES
CHARS 524
STARTCHAR space
ENCODING 32
SWIDTH 272 0
DWIDTH 4 0
BBX 1 1 0 0
BITMAP
00
ENDCHAR
STARTCHAR exclam
ENCODING 33
SWIDTH 245 0
DWIDTH 4 0
BBX 2 12 1 0
BITMAP
C0
C0
C0
C0
C0
C0
C0
C0
00
00
C0
C0
ENDCHAR
STARTCHAR quotedbl
ENCODING 34
SWIDTH 386 0
DWIDTH 6 0
BBX 4 4 1 8
BITMAP
90
90
90
90
ENDCHAR
STARTCHAR numbersign
ENCODING 35
SWIDTH 690 0
DWIDTH 11 0
BBX 10 12 1 0
BITMAP
1100
1100
1300
FFC0
3200
2200
2200
2600
FF80
6600
4400
4400
ENDCHAR
STARTCHAR dollar
ENCODING 36
SWIDTH 721 0
DWIDTH 12 0
BBX 10 14 1 -1
BITMAP
0C00
7F00
FF80
CC80
CC80
CC00
7F80
1FC0
0CC0
8CC0
CCC0
EF80
7F00
0C00
ENDCHAR
STARTCHAR percent
ENCODING 37
SWIDTH 814 0
DWIDTH 13 0
BBX 12 12 1 0
BITMAP
F080
9100
9900
9A00
9200
F400
0400
09E0
0920
1330
1120
21E0
ENDCHAR
STARTCHAR ampersand
ENCODING 38
SWIDTH 788 0
DWIDTH 13 0
BBX 11 12 1 0
BITMAP
3F00
7B80
C180
4000
6000
7000
DCC0
8EC0
83C0
C1C0
F3E0
7F20
ENDCHAR
STARTCHAR quotesingle
ENCODING 39
SWIDTH 214 0
DWIDTH 3 0
BBX 1 4 1 8
BITMAP
80
80
80
80
ENDCHAR
STARTCHAR parenleft
ENCODING 40
SWIDTH 330 0
DWIDTH 5 0
BBX 4 12 1 0
BITMAP
70
E0
C0
C0
C0
C0
C0
C0
C0
C0
F0
70
ENDCHAR
STARTCHAR parenright
ENCODING 41
SWIDTH 330 0
DWIDTH 5 0
BBX 3 12 1 0
BITMAP
C0
E0
60
20
20
20
20
20
20
60
E0
C0
ENDCHAR
STARTCHAR asterisk
ENCODING 42
SWIDTH 464 0
DWIDTH 7 0
BBX 6 6 1 6
BITMAP
20
A8
F8
70
EC
20
ENDCHAR
STARTCHAR plus
ENCODING 43
SWIDTH 597 0
DWIDTH 10 0
BBX 8 8 1 1
BITMAP
18
18
18
FF
18
18
18
18
ENDCHAR
STARTCHAR comma
ENCODING 44
SWIDTH 234 0
DWIDTH 4 0
BBX 2 4 1 -2
BITMAP
C0
C0
80
80
ENDCHAR
STARTCHAR hyphen
ENCODING 45
SWIDTH 392 0
DWIDTH 6 0
BBX 4 2 1 3
BITMAP
F0
F0
ENDCHAR
STARTCHAR period
ENCODING 46
SWIDTH 225 0
DWIDTH 4 0
BBX 2 2 1 0
BITMAP
C0
C0
ENDCHAR
STARTCHAR slash
ENCODING 47
SWIDTH 441 0
DWIDTH 7 0
BBX 7 12 0 0
BITMAP
06
04
0C
08
18
10
10
30
20
60
40
C0
ENDCHAR
STARTCHAR zero
ENCODING 48
SWIDTH 745 0
DWIDTH 12 0
BBX 10 12 1 0
BITMAP
3F00
7F80
C0C0
C0C0
C0C0
C0C0
C0C0
C0C0
C0C0
C0C0
7F80
3F00
ENDCHAR
STARTCHAR one
ENCODING 49
SWIDTH 435 0
DWIDTH 7 0
BBX 6 12 0 0
BITMAP
1C
3C
6C
CC
0C
0C
0C
0C
0C
0C
0C
0C
ENDCHAR
STARTCHAR two
ENCODING 50
SWIDTH 711 0
DWIDTH 11 0
BBX 10 12 1 0
BITMAP
7F00
FF80
C080
C080
0080
0180
3F00
F000
C000
C000
C000
FFC0
ENDCHAR
STARTCHAR three
ENCODING 51
SWIDTH 716 0
DWIDTH 11 0
BBX 10 12 1 0
BITMAP
7F00
FF80
C080
C080
0180
1F00
1F80
0080
80C0
C0C0
FF80
7F00
ENDCHAR
STARTCHAR four
ENCODING 52
SWIDTH 709 0
DWIDTH 11 0
BBX 11 12 0 0
BITMAP
0180
0380
0680
0C80
1880
3080
2080
6080
FFE0
FFE0
0080
0080
ENDCHAR
STARTCHAR five
ENCODING 53
SWIDTH 710 0
DWIDTH 11 0
BBX 10 12 1 0
BITMAP
FF80
FF80
C000
C000
FF00
FF80
C080
00C0
C0C0
C080
FF80
7F00
ENDCHAR
STARTCHAR six
ENCODING 54
SWIDTH 723 0
DWIDTH 12 0
BBX 10 12 1 0
BITMAP
3F00
7F80
C0C0
C0C0
C000
FF00
FF80
C0C0
C0C0
C0C0
7F80
3F00
ENDCHAR
STARTCHAR seven
ENCODING 55
SWIDTH 648 0
DWIDTH 10 0
BBX 10 12 0 0
BITMAP
FFC0
FFC0
0080
0180
0300
0300
0600
0600
0C00
0800
1800
3000
ENDCHAR
STARTCHAR eight
ENCODING 56
SWIDTH 725 0
DWIDTH 12 0
BBX 10 12 1 0
BITMAP
7F00
FF80
C0C0
C0C0
C080
7F00
7F80
C0C0
C0C0
C0C0
FF80
7F00
ENDCHAR
STARTCHAR nine
ENCODING 57
SWIDTH 725 0
DWIDTH 12 0
BBX 10 12 1 0
BITMAP
7F00
FF80
C080
C0C0
C0C0
FFC0
7EC0
00C0
C080
C080
FF80
7F00
ENDCHAR
STARTCHAR colon
ENCODING 58
SWIDTH 226 0
DWIDTH 4 0
BBX 2 9 1 0
BITMAP
C0
C0
00
00
00
00
00
C0
C0
ENDCHAR
STARTCHAR semicolon
ENCODING 59
SWIDTH 251 0
DWIDTH 4 0
BBX 2 11 1 -2
BITMAP
C0
C0
00
00
00
00
00
C0
C0
40
80
ENDCHAR
STARTCHAR less
ENCODING 60
SWIDTH 597 0
DWIDTH 10 0
BBX 8 8 1 1
BITMAP
03
0F
38
E0
E0
38
0F
03
ENDCHAR
STARTCHAR equal
ENCODING 61
SWIDTH 597 0
DWIDTH 10 0
BBX 8 4 1 3
BITMAP
FF
00
00
FF
ENDCHAR
STARTCHAR greater
ENCODING 62
SWIDTH 597 0
DWIDTH 10 0
BBX 8 8 1 1
BITMAP
80
F0
3C
07
07
3C
F0
80
ENDCHAR
STARTCHAR question
ENCODING 63
SWIDTH 570 0
DWIDTH 9 0
BBX 9 12 0 0
BITMAP
3E00
7F00
C180
C180
0100
0700
1E00
1800
0000
0000
1800
1800
ENDCHAR
STARTCHAR at
ENCODING 64
SWIDTH 938 0
DWIDTH 15 0
BBX 13 13 1 -2
BITMAP
3FE0
6030
C018
8F48
9CC8
9848
9848
9848
98C8
8F78
C000
6018
3FF0
ENDCHAR
STARTCHAR A
ENCODING 65
SWIDTH 758 0
DWIDTH 12 0
BBX 12 12 0 0
BITMAP
0600
0F00
0F00
0980
1980
1080
30C0
30C0
3FE0
6060
4020
C030
ENDCHAR
STARTCHAR B
ENCODING 66
SWIDTH 737 0
DWIDTH 12 0
BBX 10 12 1 0
BITMAP
FF80
FF80
C0C0
C0C0
C080
FF00
C180
C0C0
C0C0
C0C0
C3C0
FF80
ENDCHAR
STARTCHAR C
ENCODING 67
SWIDTH 758 0
DWIDTH 12 0
BBX 10 12 1 0
BITMAP
3F80
7FC0
C0C0
C040
C000
C000
C000
C000
C040
C0C0
7FC0
3F80
ENDCHAR
STARTCHAR D
ENCODING 68
SWIDTH 767 0
DWIDTH 12 0
BBX 10 12 1 0
BITMAP
FF00
FFC0
C0C0
C040
C040
C040
C040
C040
C040
C0C0
C7C0
FF00
ENDCHAR
STARTCHAR E
ENCODING 69
SWIDTH 661 0
DWIDTH 11 0
BBX 9 12 1 0
BITMAP
FF80
FF80
C000
C000
C000
FF00
FF00
C000
C000
C000
C000
FF80
ENDCHAR
STARTCHAR F
ENCODING 70
SWIDTH 633 0
DWIDTH 10 0
BBX 9 12 1 0
BITMAP
FF80
FF80
C000
C000
C000
C000
FF00
C000
C000
C000
C000
C000
ENDCHAR
STARTCHAR G
ENCODING 71
SWIDTH 782 0
DWIDTH 13 0
BBX 11 12 1 0
BITMAP
3F80
7FC0
C040
C040
C000
C000
C7E0
C060
C060
C040
7FC0
3F80
ENDCHAR
STARTCHAR H
ENCODING 72
SWIDTH 782 0
DWIDTH 13 0
BBX 10 12 1 0
BITMAP
C040
C040
C040
C040
C040
FFC0
FFC0
C040
C040
C040
C040
C040
ENDCHAR
STARTCHAR I
ENCODING 73
SWIDTH 250 0
DWIDTH 4 0
BBX 2 12 1 0
BITMAP
C0
C0
C0
C0
C0
C0
C0
C0
C0
C0
C0
C0
ENDCHAR
STARTCHAR J
ENCODING 74
SWIDTH 643 0
DWIDTH 10 0
BBX 9 12 0 0
BITMAP
0080
0080
0080
0080
0080
0080
0080
C080
C080
4180
7F80
3F00
ENDCHAR
STARTCHAR K
ENCODING 75
SWIDTH 701 0
DWIDTH 11 0
BBX 10 12 1 0
BITMAP
C1C0
C380
C300
C600
CC00
F800
F800
CC00
C600
C300
C180
C0C0
ENDCHAR
STARTCHAR L
ENCODING 76
SWIDTH 589 0
DWIDTH 9 0
BBX 8 12 1 0
BITMAP
C0
C0
C0
C0
C0
C0
C0
C0
C0
C0
C0
FF
ENDCHAR
STARTCHAR M
ENCODING 77
SWIDTH 1017 0
DWIDTH 16 0
BBX 14 12 1 0
BITMAP
E01C
E01C
F034
D034
D824
D864
CC44
CCC4
C4C4
C784
C384
C304
ENDCHAR
STARTCHAR N
ENCODING 78
SWIDTH 805 0
DWIDTH 13 0
BBX 11 12 1 0
BITMAP
E060
F060
F060
D860
C860
CC60
C660
C660
C360
C1E0
C1E0
C0E0
ENDCHAR
STARTCHAR O
ENCODING 79
SWIDTH 803 0
DWIDTH 13 0
BBX 11 12 1 0
BITMAP
3F80
7FC0
C060
C060
C060
C060
C060
C060
C060
C060
7FC0
3F80
ENDCHAR
STARTCHAR P
ENCODING 80
SWIDTH 721 0
DWIDTH 12 0
BBX 10 12 1 0
BITMAP
FF80
FFC0
C0C0
C0C0
C0C0
C0C0
C3C0
FF80
C000
C000
C000
C000
ENDCHAR
STARTCHAR Q
ENCODING 81
SWIDTH 807 0
DWIDTH 13 0
BBX 11 12 1 0
BITMAP
3F80
7FC0
C060
C060
C060
C060
C460
C660
C3E0
C0E0
7FE0
3FA0
ENDCHAR
STARTCHAR R
ENCODING 82
SWIDTH 744 0
DWIDTH 12 0
BBX 10 12 1 0
BITMAP
FF80
FFC0
C0C0
C0C0
C0C0
C380
FF80
C0C0
C0C0
C0C0
C0C0
C0C0
ENDCHAR
STARTCHAR S
ENCODING 83
SWIDTH 719 0
DWIDTH 12 0
BBX 10 12 1 0
BITMAP
7F00
E380
C080
C080
C000
FF00
1F80
00C0
80C0
C0C0
E380
7F00
ENDCHAR
STARTCHAR T
ENCODING 84
SWIDTH 658 0
DWIDTH 11 0
BBX 10 12 0 0
BITMAP
FFC0
FFC0
0C00
0C00
0C00
0C00
0C00
0C00
0C00
0C00
0C00
0C00
ENDCHAR
STARTCHAR U
ENCODING 85
SWIDTH 781 0
DWIDTH 13 0
BBX 10 12 1 0
BITMAP
C040
C040
C040
C040
C040
C040
C040
C040
C040
C0C0
7FC0
3F80
ENDCHAR
STARTCHAR V
ENCODING 86
SWIDTH 737 0
DWIDTH 12 0
BBX 11 12 0 0
BITMAP
C020
4060
6060
6040
30C0
30C0
1180
1980
1900
0B00
0F00
0600
ENDCHAR
STARTCHAR W
ENCODING 87
SWIDTH 1090 0
DWIDTH 17 0
BBX 17 12 0 0
BITMAP
C0C180
41C180
61C100
616100
236300
232300
323200
323600
161600
1E1400
1C1C00
0C1C00
ENDCHAR
STARTCHAR X
ENCODING 88
SWIDTH 721 0
DWIDTH 12 0
BBX 11 12 0 0
BITMAP
6060
60C0
3180
1980
0F00
0E00
0E00
1B00
1980
30C0
60C0
C060
ENDCHAR
STARTCHAR Y
ENCODING 89
SWIDTH 712 0
DWIDTH 11 0
BBX 11 12 0 0
BITMAP
C060
6040
20C0
3180
1980
1B00
0E00
0600
0600
0600
0600
0600
ENDCHAR
STARTCHAR Z
ENCODING 90
SWIDTH 671 0
DWIDTH 11 0
BBX 10 12 0 0
BITMAP
7FC0
7FC0
0180
0300
0700
0600
0C00
1800
3000
6000
6000
FFC0
ENDCHAR
STARTCHAR bracketleft
ENCODING 91
SWIDTH 325 0
DWIDTH 5 0
BBX 4 12 1 0
BITMAP
F0
C0
C0
C0
C0
C0
C0
C0
C0
C0
C0
F0
ENDCHAR
STARTCHAR backslash
ENCODING 92
SWIDTH 442 0
DWIDTH 7 0
BBX 7 12 0 0
BITMAP
C0
40
60
20
30
10
10
18
08
0C
04
06
ENDCHAR
STARTCHAR bracketright
ENCODING 93
SWIDTH 325 0
DWIDTH 5 0
BBX 3 12 1 0
BITMAP
E0
60
60
60
60
60
60
60
60
60
60
E0
ENDCHAR
STARTCHAR asciicircum
ENCODING 94
SWIDTH 591 0
DWIDTH 9 0
BBX 8 7 1 5
BITMAP
18
38
2C
64
46
C2
83
ENDCHAR
STARTCHAR underscore
ENCODING 95
SWIDTH 531 0
DWIDTH 9 0
BBX 7 1 1 -2
BITMAP
FE
ENDCHAR
STARTCHAR grave
ENCODING 96
SWIDTH 308 0
DWIDTH 5 0
BBX 3 2 1 10
BITMAP
C0
60
ENDCHAR
STARTCHAR a
ENCODING 97
SWIDTH 577 0
DWIDTH 9 0
BBX 7 9 1 0
BITMAP
7C
C6
C2
02
FE
82
82
C6
7A
ENDCHAR
STARTCHAR b
ENCODING 98
SWIDTH 621 0
DWIDTH 10 0
BBX 8 12 1 0
BITMAP
C0
C0
C0
FE
E7
C3
C1
C1
C1
C3
E7
FE
ENDCHAR
STARTCHAR c
ENCODING 99
SWIDTH 590 0
DWIDTH 9 0
BBX 8 9 1 0
BITMAP
7C
E6
C3
80
80
83
C3
E6
7C
ENDCHAR
STARTCHAR d
ENCODING 100
SWIDTH 621 0
DWIDTH 10 0
BBX 8 12 1 0
BITMAP
03
03
03
7F
E7
C3
83
83
83
C3
E7
7F
ENDCHAR
STARTCHAR e
ENCODING 101
SWIDTH 594 0
DWIDTH 10 0
BBX 8 9 1 0
BITMAP
7C
C6
83
83
FF
80
83
C6
7E
ENDCHAR
STARTCHAR f
ENCODING 102
SWIDTH 335 0
DWIDTH 5 0
BBX 5 12 0 0
BITMAP
38
20
20
F8
20
20
20
20
20
20
20
20
ENDCHAR
STARTCHAR g
ENCODING 103
SWIDTH 615 0
DWIDTH 10 0
BBX 8 12 1 -3
BITMAP
7F
E7
C3
83
83
83
C3
7F
03
C3
C7
7E
ENDCHAR
STARTCHAR h
ENCODING 104
SWIDTH 594 0
DWIDTH 10 0
BBX 8 12 1 0
BITMAP
C0
C0
C0
FE
E6
C2
C3
C3
C3
C3
C3
C3
ENDCHAR
STARTCHAR i
ENCODING 105
SWIDTH 228 0
DWIDTH 4 0
BBX 2 12 1 0
BITMAP
C0
C0
00
C0
C0
C0
C0
C0
C0
C0
C0
C0
ENDCHAR
STARTCHAR j
ENCODING 106
SWIDTH 228 0
DWIDTH 4 0
BBX 3 15 0 -3
BITMAP
60
60
00
60
60
60
60
60
60
60
60
60
60
60
C0
ENDCHAR
STARTCHAR k
ENCODING 107
SWIDTH 519 0
DWIDTH 8 0
BBX 7 12 1 0
BITMAP
C0
C0
C0
C6
CC
D8
F0
F0
D8
C8
CC
C6
ENDCHAR
STARTCHAR l
ENCODING 108
SWIDTH 228 0
DWIDTH 4 0
BBX 2 12 1 0
BITMAP
C0
C0
C0
C0
C0
C0
C0
C0
C0
C0
C0
C0
ENDCHAR
STARTCHAR m
ENCODING 109
SWIDTH 918 0
DWIDTH 15 0
BBX 13 9 1 0
BITMAP
FCF0
E730
C218
C218
C218
C218
C218
C218
C218
ENDCHAR
STARTCHAR n
ENCODING 110
SWIDTH 594 0
DWIDTH 10 0
BBX 8 9 1 0
BITMAP
FE
E6
C2
C3
C3
C3
C3
C3
C3
ENDCHAR
STARTCHAR o
ENCODING 111
SWIDTH 612 0
DWIDTH 10 0
BBX 8 9 1 0
BITMAP
7E
E7
C3
83
83
83
C3
E7
7E
ENDCHAR
STARTCHAR p
ENCODING 112
SWIDTH 621 0
DWIDTH 10 0
BBX 8 12 1 -3
BITMAP
FE
E7
C3
C1
C1
C1
C3
E7
FE
C0
C0
C0
ENDCHAR
STARTCHAR q
ENCODING 113
SWIDTH 621 0
DWIDTH 10 0
BBX 8 12 1 -3
BITMAP
7F
E7
C3
83
83
83
C3
E7
7F
03
03
03
ENDCHAR
STARTCHAR r
ENCODING 114
SWIDTH 389 0
DWIDTH 6 0
BBX 5 9 1 0
BITMAP
F8
E0
C0
C0
C0
C0
C0
C0
C0
ENDCHAR
STARTCHAR s
ENCODING 115
SWIDTH 559 0
DWIDTH 9 0
BBX 7 9 1 0
BITMAP
7C
C6
86
C0
FE
06
82
C6
7C
ENDCHAR
STARTCHAR t
ENCODING 116
SWIDTH 367 0
DWIDTH 6 0
BBX 5 11 0 0
BITMAP
60
60
F8
60
60
60
60
60
60
20
38
ENDCHAR
STARTCHAR u
ENCODING 117
SWIDTH 588 0
DWIDTH 9 0
BBX 7 9 1 0
BITMAP
C2
C2
C2
C2
C2
C2
C2
E6
7A
ENDCHAR
STARTCHAR v
ENCODING 118
SWIDTH 543 0
DWIDTH 9 0
BBX 8 9 0 0
BITMAP
C1
43
63
62
26
36
34
1C
1C
ENDCHAR
STARTCHAR w
ENCODING 119
SWIDTH 831 0
DWIDTH 13 0
BBX 13 9 0 0
BITMAP
C318
4718
6510
6510
25B0
2CB0
38A0
38A0
18E0
ENDCHAR
STARTCHAR x
ENCODING 120
SWIDTH 546 0
DWIDTH 9 0
BBX 8 9 0 0
BITMAP
43
62
36
1C
18
1C
36
63
C3
ENDCHAR
STARTCHAR y
ENCODING 121
SWIDTH 546 0
DWIDTH 9 0
BBX 8 12 0 -3
BITMAP
C1
43
63
62
26
34
14
1C
18
18
18
70
ENDCHAR
STARTCHAR z
ENCODING 122
SWIDTH 503 0
DWIDTH 8 0
BBX 6 9 1 0
BITMAP
FC
0C
08
18
30
60
C0
C0
FC
ENDCHAR
STARTCHAR braceleft
ENCODING 123
SWIDTH 334 0
DWIDTH 5 0
BBX 4 12 1 0
BITMAP
70
60
40
40
40
C0
C0
40
40
40
60
70
ENDCHAR
STARTCHAR bar
ENCODING 124
SWIDTH 248 0
DWIDTH 4 0
BBX 2 14 1 -1
BITMAP
C0
C0
C0
C0
C0
C0
C0
C0
C0
C0
C0
C0
C0
C0
ENDCHAR
STARTCHAR braceright
ENCODING 125
SWIDTH 334 0
DWIDTH 5 0
BBX 4 12 1 0
BITMAP
C0
E0
60
60
60
60
30
60
60
60
E0
C0
ENDCHAR
STARTCHAR asciitilde
ENCODING 126
SWIDTH 597 0
DWIDTH 10 0
BBX 8 3 1 4
BITMAP
63
FB
9E
ENDCHAR
STARTCHAR uni00A0
ENCODING 160
SWIDTH 272 0
DWIDTH 4 0
BBX 1 1 0 0
BITMAP
00
ENDCHAR
STARTCHAR exclamdown
ENCODING 161
SWIDTH 245 0
DWIDTH 4 0
BBX 2 12 1 -3
BITMAP
C0
C0
00
00
C0
C0
C0
C0
C0
C0
C0
C0
ENDCHAR
STARTCHAR cent
ENCODING 162
SWIDTH 601 0
DWIDTH 10 0
BBX 8 12 1 0
BITMAP
18
18
7E
FF
DB
98
98
DB
DB
7E
18
18
ENDCHAR
STARTCHAR sterling
ENCODING 163
SWIDTH 725 0
DWIDTH 12 0
BBX 10 12 1 0
BITMAP
1F00
3B80
60C0
60C0
6000
6000
FE00
6000
6000
6000
C000
FFC0
ENDCHAR
STARTCHAR currency
ENCODING 164
SWIDTH 688 0
DWIDTH 11 0
BBX 9 10 1 1
BITMAP
8080
FF80
6300
4100
C180
C180
C180
4100
7F00
C180
ENDCHAR
STARTCHAR yen
ENCODING 165
SWIDTH 734 0
DWIDTH 12 0
BBX 10 12 1 0
BITMAP
80C0
C0C0
6180
6100
3300
1600
1E00
7F80
0C00
7F80
0C00
0C00
ENDCHAR
STARTCHAR brokenbar
ENCODING 166
SWIDTH 248 0
DWIDTH 4 0
BBX 2 14 1 -1
BITMAP
C0
C0
C0
C0
C0
C0
00
00
C0
C0
C0
C0
C0
C0
ENDCHAR
STARTCHAR section
ENCODING 167
SWIDTH 705 0
DWIDTH 11 0
BBX 9 15 1 -3
BITMAP
7F00
E380
C180
C000
FE00
7F80
C080
C080
C180
FF00
0780
0080
C080
F380
7F00
ENDCHAR
STARTCHAR dieresis
ENCODING 168
SWIDTH 360 0
DWIDTH 6 0
BBX 4 2 1 10
BITMAP
90
90
ENDCHAR
STARTCHAR copyright
ENCODING 169
SWIDTH 881 0
DWIDTH 14 0
BBX 12 12 1 0
BITMAP
3FC0
6060
C030
9F90
9890
9010
9010
9890
9F90
C030
6060
3FC0
ENDCHAR
STARTCHAR ordfeminine
ENCODING 170
SWIDTH 487 0
DWIDTH 8 0
BBX 6 7 1 5
BITMAP
78
8C
0C
FC
84
8C
FC
ENDCHAR
STARTCHAR guillemotleft
ENCODING 171
SWIDTH 465 0
DWIDTH 7 0
BBX 6 7 1 1
BITMAP
68
58
D0
90
D8
48
6C
ENDCHAR
STARTCHAR logicalnot
ENCODING 172
SWIDTH 597 0
DWIDTH 10 0
BBX 8 5 1 2
BITMAP
FF
03
03
03
03
ENDCHAR
STARTCHAR registered
ENCODING 174
SWIDTH 547 0
DWIDTH 9 0
BBX 7 7 1 5
BITMAP
7C
B2
AA
BA
AA
82
7C
ENDCHAR
STARTCHAR macron
ENCODING 175
SWIDTH 354 0
DWIDTH 6 0
BBX 4 1 1 10
BITMAP
F0
ENDCHAR
STARTCHAR degree
ENCODING 176
SWIDTH 506 0
DWIDTH 8 0
BBX 6 7 1 5
BITMAP
78
84
84
84
84
84
78
ENDCHAR
STARTCHAR plusminus
ENCODING 177
SWIDTH 597 0
DWIDTH 10 0
BBX 8 10 1 0
BITMAP
18
18
18
FF
18
18
18
18
00
FF
ENDCHAR
STARTCHAR uni00B2
ENCODING 178
SWIDTH 412 0
DWIDTH 7 0
BBX 5 6 1 8
BITMAP
F8
88
18
F0
80
F8
ENDCHAR
STARTCHAR uni00B3
ENCODING 179
SWIDTH 412 0
DWIDTH 7 0
BBX 6 6 0 7
BITMAP
7C
44
18
04
C4
7C
ENDCHAR
STARTCHAR acute
ENCODING 180
SWIDTH 304 0
DWIDTH 5 0
BBX 3 2 1 10
BITMAP
60
C0
ENDCHAR
STARTCHAR uni00B5
ENCODING 181
SWIDTH 598 0
DWIDTH 10 0
BBX 7 12 1 -3
BITMAP
C2
C2
C2
C2
C2
C2
C2
E6
FA
C0
C0
C0
ENDCHAR
STARTCHAR paragraph
ENCODING 182
SWIDTH 720 0
DWIDTH 12 0
BBX 9 12 1 0
BITMAP
7F80
FE80
FE80
FE80
FE80
FE80
FE80
7E80
0680
0680
0680
0680
ENDCHAR
STARTCHAR periodcentered
ENCODING 183
SWIDTH 228 0
DWIDTH 4 0
BBX 2 2 1 3
BITMAP
C0
C0
ENDCHAR
STARTCHAR cedilla
ENCODING 184
SWIDTH 327 0
DWIDTH 5 0
BBX 4 4 1 -3
BITMAP
40
60
90
E0
ENDCHAR
STARTCHAR uni00B9
ENCODING 185
SWIDTH 276 0
DWIDTH 4 0
BBX 4 6 0 7
BITMAP
70
F0
30
30
30
30
ENDCHAR
STARTCHAR ordmasculine
ENCODING 186
SWIDTH 502 0
DWIDTH 8 0
BBX 6 7 1 5
BITMAP
78
C4
84
84
84
84
78
ENDCHAR
STARTCHAR guillemotright
ENCODING 187
SWIDTH 465 0
DWIDTH 7 0
BBX 6 7 1 1
BITMAP
D0
D8
48
6C
48
D8
90
ENDCHAR
STARTCHAR onequarter
ENCODING 188
SWIDTH 782 0
DWIDTH 13 0
BBX 11 12 1 0
BITMAP
6100
A300
2200
2600
2400
2C00
28C0
1940
1240
3440
27E0
6040
ENDCHAR
STARTCHAR onehalf
ENCODING 189
SWIDTH 836 0
DWIDTH 13 0
BBX 12 12 1 0
BITMAP
6100
A300
2200
2600
2400
2DE0
0B30
1830
11E0
3380
2300
63F0
ENDCHAR
STARTCHAR threequarters
ENCODING 190
SWIDTH 896 0
DWIDTH 14 0
BBX 13 12 1 0
BITMAP
F840
88C0
0880
3180
0900
8B00
FA30
0650
0490
0D10
09F8
1810
ENDCHAR
STARTCHAR questiondown
ENCODING 191
SWIDTH 570 0
DWIDTH 9 0
BBX 8 13 1 -4
BITMAP
18
18
00
00
18
38
F0
C0
80
83
C3
FE
10
ENDCHAR
STARTCHAR Agrave
ENCODING 192
SWIDTH 758 0
DWIDTH 12 0
BBX 12 15 0 0
BITMAP
0C00
0600
0000
0600
0F00
0F00
0980
1980
1080
30C0
30C0
3FE0
6060
4020
C030
ENDCHAR
STARTCHAR Aacute
ENCODING 193
SWIDTH 758 0
DWIDTH 12 0
BBX 12 15 0 0
BITMAP
0300
0600
0000
0600
0F00
0F00
0980
1980
1080
30C0
30C0
3FE0
6060
4020
C030
ENDCHAR
STARTCHAR Acircumflex
ENCODING 194
SWIDTH 758 0
DWIDTH 12 0
BBX 12 15 0 0
BITMAP
0600
0900
0000
0600
0F00
0F00
0980
1980
1080
30C0
30C0
3FE0
6060
4020
C030
ENDCHAR
STARTCHAR Atilde
ENCODING 195
SWIDTH 758 0
DWIDTH 12 0
BBX 12 15 0 0
BITMAP
0D00
0B00
0000
0600
0F00
0F00
0980
1980
1080
30C0
30C0
3FE0
6060
4020
C030
ENDCHAR
STARTCHAR Adieresis
ENCODING 196
SWIDTH 758 0
DWIDTH 12 0
BBX 12 15 0 0
BITMAP
0900
0900
0000
0600
0F00
0F00
0980
1980
1080
30C0
30C0
3FE0
6060
4020
C030
ENDCHAR
STARTCHAR Aring
ENCODING 197
SWIDTH 758 0
DWIDTH 12 0
BBX 12 16 0 0
BITMAP
0600
0900
0F00
0000
0600
0F00
0F00
0980
1980
1080
30C0
30C0
3FE0
6060
4020
C030
ENDCHAR
STARTCHAR AE
ENCODING 198
SWIDTH 1129 0
DWIDTH 18 0
BBX 17 12 0 0
BITMAP
00FF80
01FF80
034000
024000
064000
0C7F80
187F80
184000
3FC000
604000
604000
C07F80
ENDCHAR
STARTCHAR Ccedilla
ENCODING 199
SWIDTH 758 0
DWIDTH 12 0
BBX 10 15 1 -3
BITMAP
3F80
7FC0
C0C0
C040
C000
C000
C000
C000
C040
C0C0
7FC0
3F80
0600
1A00
0E00
ENDCHAR
STARTCHAR Egrave
ENCODING 200
SWIDTH 661 0
DWIDTH 11 0
BBX 9 15 1 0
BITMAP
3000
1800
0000
FF80
FF80
C000
C000
C000
FF00
FF00
C000
C000
C000
C000
FF80
ENDCHAR
STARTCHAR Eacute
ENCODING 201
SWIDTH 661 0
DWIDTH 11 0
BBX 9 15 1 0
BITMAP
0600
0800
0000
FF80
FF80
C000
C000
C000
FF00
FF00
C000
C000
C000
C000
FF80
ENDCHAR
STARTCHAR Ecircumflex
ENCODING 202
SWIDTH 661 0
DWIDTH 11 0
BBX 9 15 1 0
BITMAP
1C00
3600
0000
FF80
FF80
C000
C000
C000
FF00
FF00
C000
C000
C000
C000
FF80
ENDCHAR
STARTCHAR Edieresis
ENCODING 203
SWIDTH 661 0
DWIDTH 11 0
BBX 9 15 1 0
BITMAP
3600
3600
0000
FF80
FF80
C000
C000
C000
FF00
FF00
C000
C000
C000
C000
FF80
ENDCHAR
STARTCHAR Igrave
ENCODING 204
SWIDTH 250 0
DWIDTH 4 0
BBX 3 15 0 0
BITMAP
C0
60
00
60
60
60
60
60
60
60
60
60
60
60
60
ENDCHAR
STARTCHAR Iacute
ENCODING 205
SWIDTH 250 0
DWIDTH 4 0
BBX 3 15 1 0
BITMAP
60
C0
00
C0
C0
C0
C0
C0
C0
C0
C0
C0
C0
C0
C0
ENDCHAR
STARTCHAR Icircumflex
ENCODING 206
SWIDTH 250 0
DWIDTH 4 0
BBX 4 15 0 0
BITMAP
60
90
00
60
60
60
60
60
60
60
60
60
60
60
60
ENDCHAR
STARTCHAR Idieresis
ENCODING 207
SWIDTH 250 0
DWIDTH 4 0
BBX 4 15 0 0
BITMAP
90
90
00
60
60
60
60
60
60
60
60
60
60
60
60
ENDCHAR
STARTCHAR Eth
ENCODING 208
SWIDTH 791 0
DWIDTH 13 0
BBX 11 12 1 0
BITMAP
7F80
7FC0
4040
4060
4060
F860
4060
4060
4060
4040
43C0
7F80
ENDCHAR
STARTCHAR Ntilde
ENCODING 209
SWIDTH 805 0
DWIDTH 13 0
BBX 11 15 1 0
BITMAP
0D00
1600
0000
E060
F060
F060
D860
C860
CC60
C660
C660
C360
C1E0
C1E0
C0E0
ENDCHAR
STARTCHAR Ograve
ENCODING 210
SWIDTH 803 0
DWIDTH 13 0
BBX 11 15 1 0
BITMAP
1800
0C00
0000
3F80
7FC0
C060
C060
C060
C060
C060
C060
C060
C060
7FC0
3F80
ENDCHAR
STARTCHAR Oacute
ENCODING 211
SWIDTH 803 0
DWIDTH 13 0
BBX 11 15 1 0
BITMAP
0300
0600
0000
3F80
7FC0
C060
C060
C060
C060
C060
C060
C060
C060
7FC0
3F80
ENDCHAR
STARTCHAR Ocircumflex
ENCODING 212
SWIDTH 803 0
DWIDTH 13 0
BBX 11 15 1 0
BITMAP
0E00
1A00
0100
3F80
7FC0
C060
C060
C060
C060
C060
C060
C060
C060
7FC0
3F80
ENDCHAR
STARTCHAR Otilde
ENCODING 213
SWIDTH 803 0
DWIDTH 13 0
BBX 11 15 1 0
BITMAP
0D00
1600
0000
3F80
7FC0
C060
C060
C060
C060
C060
C060
C060
C060
7FC0
3F80
ENDCHAR
STARTCHAR Odieresis
ENCODING 214
SWIDTH 803 0
DWIDTH 13 0
BBX 11 15 1 0
BITMAP
1B00
1B00
0000
3F80
7FC0
C060
C060
C060
C060
C060
C060
C060
C060
7FC0
3F80
ENDCHAR
STARTCHAR multiply
ENCODING 215
SWIDTH 597 0
DWIDTH 10 0
BBX 7 7 1 2
BITMAP
42
66
3C
18
3C
6E
C6
ENDCHAR
STARTCHAR Oslash
ENCODING 216
SWIDTH 804 0
DWIDTH 13 0
BBX 11 14 1 -1
BITMAP
0060
3FC0
7FC0
C1E0
C360
C260
C660
CC60
D860
D060
F060
7FC0
7F80
C000
ENDCHAR
STARTCHAR Ugrave
ENCODING 217
SWIDTH 781 0
DWIDTH 13 0
BBX 10 15 1 0
BITMAP
1800
0C00
0000
C040
C040
C040
C040
C040
C040
C040
C040
C040
C0C0
7FC0
3F80
ENDCHAR
STARTCHAR Uacute
ENCODING 218
SWIDTH 781 0
DWIDTH 13 0
BBX 10 15 1 0
BITMAP
0200
0400
0000
C040
C040
C040
C040
C040
C040
C040
C040
C040
C0C0
7FC0
3F80
ENDCHAR
STARTCHAR Ucircumflex
ENCODING 219
SWIDTH 781 0
DWIDTH 13 0
BBX 10 15 1 0
BITMAP
0E00
1A00
0000
C040
C040
C040
C040
C040
C040
C040
C040
C040
C0C0
7FC0
3F80
ENDCHAR
STARTCHAR Udieresis
ENCODING 220
SWIDTH 781 0
DWIDTH 13 0
BBX 10 15 1 0
BITMAP
1A00
1A00
0000
C040
C040
C040
C040
C040
C040
C040
C040
C040
C0C0
7FC0
3F80
ENDCHAR
STARTCHAR Yacute
ENCODING 221
SWIDTH 712 0
DWIDTH 11 0
BBX 11 15 0 0
BITMAP
0300
0600
0000
C060
6040
20C0
3180
1980
1B00
0E00
0600
0600
0600
0600
0600
ENDCHAR
STARTCHAR Thorn
ENCODING 222
SWIDTH 725 0
DWIDTH 12 0
BBX 10 12 1 0
BITMAP
C000
C000
FF80
FFC0
C0C0
C0C0
C0C0
C0C0
FF80
FC00
C000
C000
ENDCHAR
STARTCHAR germandbls
ENCODING 223
SWIDTH 641 0
DWIDTH 10 0
BBX 9 12 1 0
BITMAP
7E00
E700
C300
C100
C300
DE00
C300
C100
C180
C100
C300
DE00
ENDCHAR
STARTCHAR agrave
ENCODING 224
SWIDTH 577 0
DWIDTH 9 0
BBX 7 12 1 0
BITMAP
60
30
00
7C
C6
C2
02
FE
82
82
C6
7A
ENDCHAR
STARTCHAR aacute
ENCODING 225
SWIDTH 577 0
DWIDTH 9 0
BBX 7 12 1 0
BITMAP
0C
18
00
7C
C6
C2
02
FE
82
82
C6
7A
ENDCHAR
STARTCHAR acircumflex
ENCODING 226
SWIDTH 577 0
DWIDTH 9 0
BBX 7 12 1 0
BITMAP
38
2C
40
7C
C6
C2
02
FE
82
82
C6
7A
ENDCHAR
STARTCHAR atilde
ENCODING 227
SWIDTH 577 0
DWIDTH 9 0
BBX 7 12 1 0
BITMAP
34
58
00
7C
C6
C2
02
FE
82
82
C6
7A
ENDCHAR
STARTCHAR adieresis
ENCODING 228
SWIDTH 577 0
DWIDTH 9 0
BBX 7 12 1 0
BITMAP
6C
6C
00
7C
C6
C2
02
FE
82
82
C6
7A
ENDCHAR
STARTCHAR aring
ENCODING 229
SWIDTH 577 0
DWIDTH 9 0
BBX 7 13 1 0
BITMAP
38
28
38
00
7C
C6
C2
02
FE
82
82
C6
7A
ENDCHAR
STARTCHAR ae
ENCODING 230
SWIDTH 951 0
DWIDTH 15 0
BBX 13 9 1 0
BITMAP
7DF0
C718
C208
0208
FFF8
8200
8208
C718
7DF0
ENDCHAR
STARTCHAR ccedilla
ENCODING 231
SWIDTH 590 0
DWIDTH 9 0
BBX 8 12 1 -3
BITMAP
7C
E6
C3
80
80
83
C3
E6
7E
18
24
3C
ENDCHAR
STARTCHAR egrave
ENCODING 232
SWIDTH 594 0
DWIDTH 10 0
BBX 8 12 1 0
BITMAP
20
10
00
7C
C6
83
83
FF
80
83
C6
7E
ENDCHAR
STARTCHAR eacute
ENCODING 233
SWIDTH 594 0
DWIDTH 10 0
BBX 8 12 1 0
BITMAP
0C
18
00
7C
C6
83
83
FF
80
83
C6
7E
ENDCHAR
STARTCHAR ecircumflex
ENCODING 234
SWIDTH 594 0
DWIDTH 10 0
BBX 8 12 1 0
BITMAP
18
2C
00
7C
C6
83
83
FF
80
83
C6
7E
ENDCHAR
STARTCHAR edieresis
ENCODING 235
SWIDTH 594 0
DWIDTH 10 0
BBX 8 12 1 0
BITMAP
2C
2C
00
7C
C6
83
83
FF
80
83
C6
7E
ENDCHAR
STARTCHAR igrave
ENCODING 236
SWIDTH 228 0
DWIDTH 4 0
BBX 3 12 0 0
BITMAP
80
40
00
60
60
60
60
60
60
60
60
60
ENDCHAR
STARTCHAR iacute
ENCODING 237
SWIDTH 228 0
DWIDTH 4 0
BBX 3 12 1 0
BITMAP
60
C0
00
C0
C0
C0
C0
C0
C0
C0
C0
C0
ENDCHAR
STARTCHAR icircumflex
ENCODING 238
SWIDTH 228 0
DWIDTH 4 0
BBX 4 12 0 0
BITMAP
60
B0
00
60
60
60
60
60
60
60
60
60
ENDCHAR
STARTCHAR idieresis
ENCODING 239
SWIDTH 228 0
DWIDTH 4 0
BBX 4 12 0 0
BITMAP
B0
B0
00
60
60
60
60
60
60
60
60
60
ENDCHAR
STARTCHAR eth
ENCODING 240
SWIDTH 616 0
DWIDTH 10 0
BBX 8 12 1 0
BITMAP
7B
0E
1A
03
7F
E7
83
83
83
83
E6
7E
ENDCHAR
STARTCHAR ntilde
ENCODING 241
SWIDTH 594 0
DWIDTH 10 0
BBX 8 12 1 0
BITMAP
34
2C
00
FE
E6
C2
C3
C3
C3
C3
C3
C3
ENDCHAR
STARTCHAR ograve
ENCODING 242
SWIDTH 612 0
DWIDTH 10 0
BBX 8 12 1 0
BITMAP
20
10
00
7E
E7
C3
83
83
83
C3
E7
7E
ENDCHAR
STARTCHAR oacute
ENCODING 243
SWIDTH 612 0
DWIDTH 10 0
BBX 8 12 1 0
BITMAP
0C
08
10
7E
E7
C3
83
83
83
C3
E7
7E
ENDCHAR
STARTCHAR ocircumflex
ENCODING 244
SWIDTH 612 0
DWIDTH 10 0
BBX 8 12 1 0
BITMAP
18
2C
00
7E
E7
C3
83
83
83
C3
E7
7E
ENDCHAR
STARTCHAR otilde
ENCODING 245
SWIDTH 612 0
DWIDTH 10 0
BBX 8 12 1 0
BITMAP
34
2C
00
7E
E7
C3
83
83
83
C3
E7
7E
ENDCHAR
STARTCHAR odieresis
ENCODING 246
SWIDTH 612 0
DWIDTH 10 0
BBX 8 12 1 0
BITMAP
24
24
00
7E
E7
C3
83
83
83
C3
E7
7E
ENDCHAR
STARTCHAR divide
ENCODING 247
SWIDTH 597 0
DWIDTH 10 0
BBX 8 8 1 1
BITMAP
18
18
00
FF
00
00
18
18
ENDCHAR
STARTCHAR oslash
ENCODING 248
SWIDTH 612 0
DWIDTH 10 0
BBX 8 11 1 -1
BITMAP
01
7E
E7
CF
8B
9B
B3
E3
E7
FE
80
ENDCHAR
STARTCHAR ugrave
ENCODING 249
SWIDTH 588 0
DWIDTH 9 0
BBX 7 12 1 0
BITMAP
20
30
00
C2
C2
C2
C2
C2
C2
C2
E6
7A
ENDCHAR
STARTCHAR uacute
ENCODING 250
SWIDTH 588 0
DWIDTH 9 0
BBX 7 12 1 0
BITMAP
0C
18
00
C2
C2
C2
C2
C2
C2
C2
E6
7A
ENDCHAR
STARTCHAR ucircumflex
ENCODING 251
SWIDTH 588 0
DWIDTH 9 0
BBX 7 12 1 0
BITMAP
18
2C
00
C2
C2
C2
C2
C2
C2
C2
E6
7A
ENDCHAR
STARTCHAR udieresis
ENCODING 252
SWIDTH 588 0
DWIDTH 9 0
BBX 7 12 1 0
BITMAP
2C
2C
00
C2
C2
C2
C2
C2
C2
C2
E6
7A
ENDCHAR
STARTCHAR yacute
ENCODING 253
SWIDTH 546 0
DWIDTH 9 0
BBX 8 15 0 -3
BITMAP
04
0C
00
C1
43
63
62
26
34
14
1C
18
18
18
70
ENDCHAR
STARTCHAR thorn
ENCODING 254
SWIDTH 621 0
DWIDTH 10 0
BBX 8 15 1 -3
BITMAP
C0
C0
C0
FE
E7
C3
C1
C1
C1
C3
E7
FE
C0
C0
C0
ENDCHAR
STARTCHAR ydieresis
ENCODING 255
SWIDTH 546 0
DWIDTH 9 0
BBX 8 15 0 -3
BITMAP
36
36
00
C1
43
63
62
26
34
14
1C
18
18
18
70
ENDCHAR
STARTCHAR Amacron
ENCODING 256
SWIDTH 758 0
DWIDTH 12 0
BBX 12 15 0 0
BITMAP
0F00
0000
0000
0600
0F00
0F00
0980
1980
1080
30C0
30C0
3FE0
6060
4020
C030
ENDCHAR
STARTCHAR amacron
ENCODING 257
SWIDTH 577 0
DWIDTH 9 0
BBX 7 11 1 0
BITMAP
7C
00
7C
C6
C2
02
FE
82
82
C6
7A
ENDCHAR
STARTCHAR Abreve
ENCODING 258
SWIDTH 758 0
DWIDTH 12 0
BBX 12 15 0 0
BITMAP
0900
0F00
0000
0600
0F00
0F00
0980
1980
1080
30C0
30C0
3FE0
6060
4020
C030
ENDCHAR
STARTCHAR abreve
ENCODING 259
SWIDTH 577 0
DWIDTH 9 0
BBX 7 12 1 0
BITMAP
64
38
00
7C
C6
C2
02
FE
82
82
C6
7A
ENDCHAR
STARTCHAR Aogonek
ENCODING 260
SWIDTH 758 0
DWIDTH 12 0
BBX 12 15 0 -3
BITMAP
0600
0F00
0F00
0980
1980
1080
30C0
30C0
3FE0
6060
4020
C030
0020
0020
0030
ENDCHAR
STARTCHAR aogonek
ENCODING 261
SWIDTH 577 0
DWIDTH 9 0
BBX 8 12 1 -3
BITMAP
7C
C6
C2
02
FE
82
82
C6
FA
06
04
07
ENDCHAR
STARTCHAR Cacute
ENCODING 262
SWIDTH 758 0
DWIDTH 12 0
BBX 10 15 1 0
BITMAP
0200
0600
0000
3F80
7FC0
C0C0
C040
C000
C000
C000
C000
C040
C0C0
7FC0
3F80
ENDCHAR
STARTCHAR cacute
ENCODING 263
SWIDTH 590 0
DWIDTH 9 0
BBX 8 12 1 0
BITMAP
0C
18
00
7C
E6
C3
80
80
83
C3
E6
7C
ENDCHAR
STARTCHAR Ccircumflex
ENCODING 264
SWIDTH 758 0
DWIDTH 12 0
BBX 10 15 1 0
BITMAP
0C00
1A00
0000
3F80
7FC0
C0C0
C040
C000
C000
C000
C000
C040
C0C0
7FC0
3F80
ENDCHAR
STARTCHAR ccircumflex
ENCODING 265
SWIDTH 590 0
DWIDTH 9 0
BBX 8 12 1 0
BITMAP
18
2C
00
7C
E6
C3
80
80
83
C3
E6
7C
ENDCHAR
STARTCHAR Cdotaccent
ENCODING 266
SWIDTH 758 0
DWIDTH 12 0
BBX 10 15 1 0
BITMAP
0C00
0C00
0000
3F80
7FC0
C0C0
C040
C000
C000
C000
C000
C040
C0C0
7FC0
3F80
ENDCHAR
STARTCHAR cdotaccent
ENCODING 267
SWIDTH 590 0
DWIDTH 9 0
BBX 8 12 1 0
BITMAP
18
18
00
7C
E6
C3
80
80
83
C3
E6
7C
ENDCHAR
STARTCHAR Ccaron
ENCODING 268
SWIDTH 758 0
DWIDTH 12 0
BBX 10 15 1 0
BITMAP
1A00
0E00
0000
3F80
7FC0
C0C0
C040
C000
C000
C000
C000
C040
C0C0
7FC0
3F80
ENDCHAR
STARTCHAR ccaron
ENCODING 269
SWIDTH 590 0
DWIDTH 9 0
BBX 8 12 1 0
BITMAP
2C
38
00
7C
E6
C3
80
80
83
C3
E6
7C
ENDCHAR
STARTCHAR Dcaron
ENCODING 270
SWIDTH 767 0
DWIDTH 12 0
BBX 10 15 1 0
BITMAP
1A00
0C00
0000
FF00
FFC0
C0C0
C040
C040
C040
C040
C040
C040
C0C0
C7C0
FF00
ENDCHAR
STARTCHAR dcaron
ENCODING 271
SWIDTH 662 0
DWIDTH 11 0
BBX 10 12 1 0
BITMAP
0340
0340
0340
7F00
E700
C300
8300
8300
8300
C300
E700
7F00
ENDCHAR
STARTCHAR Dcroat
ENCODING 272
SWIDTH 791 0
DWIDTH 13 0
BBX 11 12 1 0
BITMAP
7F80
7FC0
4040
4060
4060
F860
4060
4060
4060
4040
43C0
7F80
ENDCHAR
STARTCHAR dcroat
ENCODING 273
SWIDTH 621 0
DWIDTH 10 0
BBX 9 12 1 0
BITMAP
0300
0F80
0300
7F00
E700
C300
8300
8300
8300
C300
E700
7F00
ENDCHAR
STARTCHAR Emacron
ENCODING 274
SWIDTH 661 0
DWIDTH 11 0
BBX 9 15 1 0
BITMAP
3E00
0000
0000
FF80
FF80
C000
C000
C000
FF00
FF00
C000
C000
C000
C000
FF80
ENDCHAR
STARTCHAR emacron
ENCODING 275
SWIDTH 594 0
DWIDTH 10 0
BBX 8 11 1 0
BITMAP
3C
00
7C
C6
83
83
FF
80
83
C6
7E
ENDCHAR
STARTCHAR Ebreve
ENCODING 276
SWIDTH 661 0
DWIDTH 11 0
BBX 9 15 1 0
BITMAP
3600
1C00
0000
FF80
FF80
C000
C000
C000
FF00
FF00
C000
C000
C000
C000
FF80
ENDCHAR
STARTCHAR ebreve
ENCODING 277
SWIDTH 594 0
DWIDTH 10 0
BBX 8 12 1 0
BITMAP
24
3C
00
7C
C6
83
83
FF
80
83
C6
7E
ENDCHAR
STARTCHAR Edotaccent
ENCODING 278
SWIDTH 661 0
DWIDTH 11 0
BBX 9 15 1 0
BITMAP
0800
0800
0000
FF80
FF80
C000
C000
C000
FF00
FF00
C000
C000
C000
C000
FF80
ENDCHAR
STARTCHAR edotaccent
ENCODING 279
SWIDTH 594 0
DWIDTH 10 0
BBX 8 12 1 0
BITMAP
18
18
00
7C
C6
83
83
FF
80
83
C6
7E
ENDCHAR
STARTCHAR Eogonek
ENCODING 280
SWIDTH 661 0
DWIDTH 11 0
BBX 9 15 1 -3
BITMAP
FF80
FF80
C000
C000
C000
FF00
FF00
C000
C000
C000
C000
FF80
0100
0300
0180
ENDCHAR
STARTCHAR eogonek
ENCODING 281
SWIDTH 594 0
DWIDTH 10 0
BBX 8 12 1 -3
BITMAP
7C
C6
83
83
FF
80
83
C6
7E
04
0C
0E
ENDCHAR
STARTCHAR Ecaron
ENCODING 282
SWIDTH 661 0
DWIDTH 11 0
BBX 9 15 1 0
BITMAP
3600
1C00
0000
FF80
FF80
C000
C000
C000
FF00
FF00
C000
C000
C000
C000
FF80
ENDCHAR
STARTCHAR ecaron
ENCODING 283
SWIDTH 594 0
DWIDTH 10 0
BBX 8 12 1 0
BITMAP
24
38
00
7C
C6
83
83
FF
80
83
C6
7E
ENDCHAR
STARTCHAR Gcircumflex
ENCODING 284
SWIDTH 782 0
DWIDTH 13 0
BBX 11 15 1 0
BITMAP
0E00
0A00
1100
3F80
7FC0
C040
C040
C000
C000
C7E0
C060
C060
C040
7FC0
3F80
ENDCHAR
STARTCHAR gcircumflex
ENCODING 285
SWIDTH 615 0
DWIDTH 10 0
BBX 8 15 1 -3
BITMAP
18
2C
00
7F
E7
C3
83
83
83
C3
7F
03
C3
C7
7E
ENDCHAR
STARTCHAR Gbreve
ENCODING 286
SWIDTH 782 0
DWIDTH 13 0
BBX 11 15 1 0
BITMAP
1300
0E00
0000
3F80
7FC0
C040
C040
C000
C000
C7E0
C060
C060
C040
7FC0
3F80
ENDCHAR
STARTCHAR gbreve
ENCODING 287
SWIDTH 615 0
DWIDTH 10 0
BBX 8 15 1 -3
BITMAP
24
3C
00
7F
E7
C3
83
83
83
C3
7F
03
C3
C7
7E
ENDCHAR
STARTCHAR Gdotaccent
ENCODING 288
SWIDTH 782 0
DWIDTH 13 0
BBX 11 15 1 0
BITMAP
0400
0400
0000
3F80
7FC0
C040
C040
C000
C000
C7E0
C060
C060
C040
7FC0
3F80
ENDCHAR
STARTCHAR gdotaccent
ENCODING 289
SWIDTH 615 0
DWIDTH 10 0
BBX 8 15 1 -3
BITMAP
18
18
00
7F
E7
C3
83
83
83
C3
7F
03
C3
C7
7E
ENDCHAR
STARTCHAR uni0122
ENCODING 290
SWIDTH 782 0
DWIDTH 13 0
BBX 11 16 1 -4
BITMAP
3F80
7FC0
C040
C040
C000
C000
C7E0
C060
C060
C040
7FC0
3F80
0000
0400
0400
0400
ENDCHAR
STARTCHAR uni0123
ENCODING 291
SWIDTH 615 0
DWIDTH 10 0
BBX 8 16 1 -3
BITMAP
08
18
18
00
7F
E7
C3
83
83
83
C3
7F
03
C3
C7
7E
ENDCHAR
STARTCHAR Hcircumflex
ENCODING 292
SWIDTH 782 0
DWIDTH 13 0
BBX 10 15 1 0
BITMAP
0E00
1A00
0000
C040
C040
C040
C040
C040
FFC0
FFC0
C040
C040
C040
C040
C040
ENDCHAR
STARTCHAR hcircumflex
ENCODING 293
SWIDTH 594 0
DWIDTH 10 0
BBX 9 15 0 0
BITMAP
6000
B000
0000
6000
6000
6000
7F00
7300
6100
6180
6180
6180
6180
6180
6180
ENDCHAR
STARTCHAR Hbar
ENCODING 294
SWIDTH 817 0
DWIDTH 13 0
BBX 12 12 1 0
BITMAP
C060
C060
FFF0
C060
C060
FFE0
FFE0
C060
C060
C060
C060
C060
ENDCHAR
STARTCHAR hbar
ENCODING 295
SWIDTH 594 0
DWIDTH 10 0
BBX 9 12 0 0
BITMAP
6000
F800
6000
7F00
7300
6100
6180
6180
6180
6180
6180
6180
ENDCHAR
STARTCHAR Itilde
ENCODING 296
SWIDTH 250 0
DWIDTH 4 0
BBX 4 15 0 0
BITMAP
D0
B0
00
60
60
60
60
60
60
60
60
60
60
60
60
ENDCHAR
STARTCHAR itilde
ENCODING 297
SWIDTH 228 0
DWIDTH 4 0
BBX 4 12 0 0
BITMAP
D0
B0
00
60
60
60
60
60
60
60
60
60
ENDCHAR
STARTCHAR Imacron
ENCODING 298
SWIDTH 250 0
DWIDTH 4 0
BBX 4 15 0 0
BITMAP
F0
00
00
60
60
60
60
60
60
60
60
60
60
60
60
ENDCHAR
STARTCHAR imacron
ENCODING 299
SWIDTH 228 0
DWIDTH 4 0
BBX 4 12 0 0
BITMAP
F0
00
00
60
60
60
60
60
60
60
60
60
ENDCHAR
STARTCHAR Ibreve
ENCODING 300
SWIDTH 250 0
DWIDTH 4 0
BBX 4 15 0 0
BITMAP
90
F0
00
60
60
60
60
60
60
60
60
60
60
60
60
ENDCHAR
STARTCHAR ibreve
ENCODING 301
SWIDTH 228 0
DWIDTH 4 0
BBX 4 12 0 0
BITMAP
90
F0
00
60
60
60
60
60
60
60
60
60
ENDCHAR
STARTCHAR Iogonek
ENCODING 302
SWIDTH 250 0
DWIDTH 4 0
BBX 2 15 1 -3
BITMAP
C0
C0
C0
C0
C0
C0
C0
C0
C0
C0
C0
C0
80
80
C0
ENDCHAR
STARTCHAR iogonek
ENCODING 303
SWIDTH 228 0
DWIDTH 4 0
BBX 3 15 0 -3
BITMAP
60
60
00
60
60
60
60
60
60
60
60
60
40
C0
60
ENDCHAR
STARTCHAR Idotaccent
ENCODING 304
SWIDTH 250 0
DWIDTH 4 0
BBX 2 15 1 0
BITMAP
C0
C0
00
C0
C0
C0
C0
C0
C0
C0
C0
C0
C0
C0
C0
ENDCHAR
STARTCHAR dotlessi
ENCODING 305
SWIDTH 228 0
DWIDTH 4 0
BBX 2 9 1 0
BITMAP
C0
C0
C0
C0
C0
C0
C0
C0
C0
ENDCHAR
STARTCHAR IJ
ENCODING 306
SWIDTH 895 0
DWIDTH 14 0
BBX 12 12 1 0
BITMAP
C010
C010
C010
C010
C010
C010
C010
D810
D810
C830
CFF0
C7E0
ENDCHAR
STARTCHAR ij
ENCODING 307
SWIDTH 456 0
DWIDTH 7 0
BBX 5 15 1 -3
BITMAP
C8
C8
00
C8
C8
C8
C8
C8
C8
C8
C8
C8
08
08
38
ENDCHAR
STARTCHAR Jcircumflex
ENCODING 308
SWIDTH 643 0
DWIDTH 10 0
BBX 11 15 0 0
BITMAP
01C0
0360
0000
0080
0080
0080
0080
0080
0080
0080
C080
C080
4180
7F80
3F00
ENDCHAR
STARTCHAR jcircumflex
ENCODING 309
SWIDTH 228 0
DWIDTH 4 0
BBX 4 15 0 -3
BITMAP
60
B0
00
60
60
60
60
60
60
60
60
60
60
60
C0
ENDCHAR
STARTCHAR uni0136
ENCODING 310
SWIDTH 701 0
DWIDTH 11 0
BBX 10 16 1 -4
BITMAP
C1C0
C380
C300
C600
CC00
F800
F800
CC00
C600
C300
C180
C0C0
0000
0C00
0C00
0800
ENDCHAR
STARTCHAR uni0137
ENCODING 311
SWIDTH 519 0
DWIDTH 8 0
BBX 7 16 1 -4
BITMAP
C0
C0
C0
C6
CC
D8
F0
F0
D8
C8
CC
C6
00
10
10
10
ENDCHAR
STARTCHAR kgreenlandic
ENCODING 312
SWIDTH 515 0
DWIDTH 8 0
BBX 7 9 1 0
BITMAP
C6
CC
D8
F0
F0
D0
D8
CC
C6
ENDCHAR
STARTCHAR Lacute
ENCODING 313
SWIDTH 589 0
DWIDTH 9 0
BBX 8 15 1 0
BITMAP
60
C0
00
C0
C0
C0
C0
C0
C0
C0
C0
C0
C0
C0
FF
ENDCHAR
STARTCHAR lacute
ENCODING 314
SWIDTH 228 0
DWIDTH 4 0
BBX 3 15 1 0
BITMAP
60
C0
00
C0
C0
C0
C0
C0
C0
C0
C0
C0
C0
C0
C0
ENDCHAR
STARTCHAR uni013B
ENCODING 315
SWIDTH 589 0
DWIDTH 9 0
BBX 8 16 1 -4
BITMAP
C0
C0
C0
C0
C0
C0
C0
C0
C0
C0
C0
FF
00
18
18
10
ENDCHAR
STARTCHAR uni013C
ENCODING 316
SWIDTH 228 0
DWIDTH 4 0
BBX 2 16 1 -4
BITMAP
C0
C0
C0
C0
C0
C0
C0
C0
C0
C0
C0
C0
00
C0
C0
80
ENDCHAR
STARTCHAR Lcaron
ENCODING 317
SWIDTH 589 0
DWIDTH 9 0
BBX 8 12 1 0
BITMAP
C8
D8
D8
C0
C0
C0
C0
C0
C0
C0
C0
FF
ENDCHAR
STARTCHAR lcaron
ENCODING 318
SWIDTH 257 0
DWIDTH 4 0
BBX 4 12 1 0
BITMAP
D0
D0
F0
C0
C0
C0
C0
C0
C0
C0
C0
C0
ENDCHAR
STARTCHAR Ldot
ENCODING 319
SWIDTH 589 0
DWIDTH 9 0
BBX 8 12 1 0
BITMAP
C0
C0
C0
C0
C4
C4
C0
C0
C0
C0
C0
FF
ENDCHAR
STARTCHAR ldot
ENCODING 320
SWIDTH 285 0
DWIDTH 5 0
BBX 4 12 1 0
BITMAP
C0
C0
C0
C0
C0
F0
F0
C0
C0
C0
C0
C0
ENDCHAR
STARTCHAR Lslash
ENCODING 321
SWIDTH 613 0
DWIDTH 10 0
BBX 9 12 1 0
BITMAP
4000
4000
4000
4000
5800
7800
E000
C000
4000
4000
4000
7F80
ENDCHAR
STARTCHAR lslash
ENCODING 322
SWIDTH 290 0
DWIDTH 5 0
BBX 3 12 1 0
BITMAP
40
40
40
40
40
60
C0
C0
40
40
40
40
ENDCHAR
STARTCHAR Nacute
ENCODING 323
SWIDTH 805 0
DWIDTH 13 0
BBX 11 15 1 0
BITMAP
0300
0400
0000
E060
F060
F060
D860
C860
CC60
C660
C660
C360
C1E0
C1E0
C0E0
ENDCHAR
STARTCHAR nacute
ENCODING 324
SWIDTH 594 0
DWIDTH 10 0
BBX 8 12 1 0
BITMAP
0C
18
00
FE
E6
C2
C3
C3
C3
C3
C3
C3
ENDCHAR
STARTCHAR uni0145
ENCODING 325
SWIDTH 805 0
DWIDTH 13 0
BBX 11 16 1 -4
BITMAP
E060
F060
F060
D860
C860
CC60
C660
C660
C360
C1E0
C1E0
C0E0
0000
0400
0400
0400
ENDCHAR
STARTCHAR uni0146
ENCODING 326
SWIDTH 594 0
DWIDTH 10 0
BBX 8 13 1 -4
BITMAP
FE
E6
C2
C3
C3
C3
C3
C3
C3
00
18
18
10
ENDCHAR
STARTCHAR Ncaron
ENCODING 327
SWIDTH 805 0
DWIDTH 13 0
BBX 11 15 1 0
BITMAP
1B00
0E00
0000
E060
F060
F060
D860
C860
CC60
C660
C660
C360
C1E0
C1E0
C0E0
ENDCHAR
STARTCHAR ncaron
ENCODING 328
SWIDTH 594 0
DWIDTH 10 0
BBX 8 12 1 0
BITMAP
24
38
00
FE
E6
C2
C3
C3
C3
C3
C3
C3
ENDCHAR
STARTCHAR Eng
ENCODING 330
SWIDTH 805 0
DWIDTH 13 0
BBX 11 15 1 -3
BITMAP
E060
F060
F060
D860
CC60
C460
C660
C360
C1E0
C1E0
C0E0
C060
0060
0060
01C0
ENDCHAR
STARTCHAR eng
ENCODING 331
SWIDTH 594 0
DWIDTH 10 0
BBX 8 12 1 -3
BITMAP
FE
E6
C2
C3
C3
C3
C3
C3
C3
03
02
06
ENDCHAR
STARTCHAR Omacron
ENCODING 332
SWIDTH 803 0
DWIDTH 13 0
BBX 11 14 1 0
BITMAP
1F00
0000
3F80
7FC0
C060
C060
C060
C060
C060
C060
C060
C060
7FC0
3F80
ENDCHAR
STARTCHAR omacron
ENCODING 333
SWIDTH 612 0
DWIDTH 10 0
BBX 8 11 1 0
BITMAP
3C
00
7E
E7
C3
83
83
83
C3
E7
7E
ENDCHAR
STARTCHAR Obreve
ENCODING 334
SWIDTH 803 0
DWIDTH 13 0
BBX 11 15 1 0
BITMAP
1300
0E00
0000
3F80
7FC0
C060
C060
C060
C060
C060
C060
C060
C060
7FC0
3F80
ENDCHAR
STARTCHAR obreve
ENCODING 335
SWIDTH 612 0
DWIDTH 10 0
BBX 8 12 1 0
BITMAP
24
3C
00
7E
E7
C3
83
83
83
C3
E7
7E
ENDCHAR
STARTCHAR Ohungarumlaut
ENCODING 336
SWIDTH 803 0
DWIDTH 13 0
BBX 11 15 1 0
BITMAP
0580
0B00
0000
3F80
7FC0
C060
C060
C060
C060
C060
C060
C060
C060
7FC0
3F80
ENDCHAR
STARTCHAR ohungarumlaut
ENCODING 337
SWIDTH 612 0
DWIDTH 10 0
BBX 8 12 1 0
BITMAP
1A
34
00
7E
E7
C3
83
83
83
C3
E7
7E
ENDCHAR
STARTCHAR OE
ENCODING 338
SWIDTH 1204 0
DWIDTH 19 0
BBX 17 12 1 0
BITMAP
3F7F80
7FFF80
C06000
C06000
C06000
C07F80
C06000
C06000
C06000
C0E000
7FE000
7F7F80
ENDCHAR
STARTCHAR oe
ENCODING 339
SWIDTH 1010 0
DWIDTH 16 0
BBX 14 9 1 0
BITMAP
7CF8
E78C
C304
8304
83FC
8300
C304
E78C
7CF8
ENDCHAR
STARTCHAR Racute
ENCODING 340
SWIDTH 744 0
DWIDTH 12 0
BBX 10 15 1 0
BITMAP
0600
0C00
0000
FF80
FFC0
C0C0
C0C0
C0C0
C380
FF80
C0C0
C0C0
C0C0
C0C0
C0C0
ENDCHAR
STARTCHAR racute
ENCODING 341
SWIDTH 389 0
DWIDTH 6 0
BBX 5 12 1 0
BITMAP
18
30
00
F8
E0
C0
C0
C0
C0
C0
C0
C0
ENDCHAR
STARTCHAR uni0156
ENCODING 342
SWIDTH 744 0
DWIDTH 12 0
BBX 10 16 1 -4
BITMAP
FF80
FFC0
C0C0
C0C0
C0C0
C380
FF80
C0C0
C0C0
C0C0
C0C0
C0C0
0000
0C00
0C00
0800
ENDCHAR
STARTCHAR uni0157
ENCODING 343
SWIDTH 389 0
DWIDTH 6 0
BBX 5 13 1 -4
BITMAP
F8
E0
C0
C0
C0
C0
C0
C0
C0
00
C0
C0
80
ENDCHAR
STARTCHAR Rcaron
ENCODING 344
SWIDTH 744 0
DWIDTH 12 0
BBX 10 15 1 0
BITMAP
1E00
0C00
0000
FF80
FFC0
C0C0
C0C0
C0C0
C380
FF80
C0C0
C0C0
C0C0
C0C0
C0C0
ENDCHAR
STARTCHAR rcaron
ENCODING 345
SWIDTH 389 0
DWIDTH 6 0
BBX 5 12 1 0
BITMAP
D8
70
00
F8
E0
C0
C0
C0
C0
C0
C0
C0
ENDCHAR
STARTCHAR Sacute
ENCODING 346
SWIDTH 719 0
DWIDTH 12 0
BBX 10 15 1 0
BITMAP
0600
0C00
0000
7F00
E380
C080
C080
C000
FF00
1F80
00C0
80C0
C0C0
E380
7F00
ENDCHAR
STARTCHAR sacute
ENCODING 347
SWIDTH 559 0
DWIDTH 9 0
BBX 7 12 1 0
BITMAP
08
18
00
7C
C6
86
C0
FE
06
82
C6
7C
ENDCHAR
STARTCHAR Scircumflex
ENCODING 348
SWIDTH 719 0
DWIDTH 12 0
BBX 10 15 1 0
BITMAP
1C00
3600
0000
7F00
E380
C080
C080
C000
FF00
1F80
00C0
80C0
C0C0
E380
7F00
ENDCHAR
STARTCHAR scircumflex
ENCODING 349
SWIDTH 559 0
DWIDTH 9 0
BBX 7 12 1 0
BITMAP
38
68
00
7C
C6
86
C0
FE
06
82
C6
7C
ENDCHAR
STARTCHAR Scedilla
ENCODING 350
SWIDTH 719 0
DWIDTH 12 0
BBX 10 15 1 -3
BITMAP
7F00
E380
C080
C080
C000
FF00
1F80
00C0
80C0
C0C0
E380
7F00
0C00
1200
1E00
ENDCHAR
STARTCHAR scedilla
ENCODING 351
SWIDTH 559 0
DWIDTH 9 0
BBX 7 12 1 -3
BITMAP
7C
C6
86
C0
FE
06
82
C6
7C
10
2C
38
ENDCHAR
STARTCHAR Scaron
ENCODING 352
SWIDTH 719 0
DWIDTH 12 0
BBX 10 15 1 0
BITMAP
1600
0C00
0000
7F00
E380
C080
C080
C000
FF00
1F80
00C0
80C0
C0C0
E380
7F00
ENDCHAR
STARTCHAR scaron
ENCODING 353
SWIDTH 559 0
DWIDTH 9 0
BBX 7 12 1 0
BITMAP
6C
38
00
7C
C6
86
C0
FE
06
82
C6
7C
ENDCHAR
STARTCHAR uni0162
ENCODING 354
SWIDTH 658 0
DWIDTH 11 0
BBX 10 15 0 -3
BITMAP
FFC0
FFC0
0C00
0C00
0C00
0C00
0C00
0C00
0C00
0C00
0C00
0C00
0400
1A00
0E00
ENDCHAR
STARTCHAR uni0163
ENCODING 355
SWIDTH 367 0
DWIDTH 6 0
BBX 6 14 0 -3
BITMAP
60
60
F8
60
60
60
60
60
60
20
38
10
2C
3C
ENDCHAR
STARTCHAR Tcaron
ENCODING 356
SWIDTH 658 0
DWIDTH 11 0
BBX 10 15 0 0
BITMAP
1A00
0C00
0000
FFC0
FFC0
0C00
0C00
0C00
0C00
0C00
0C00
0C00
0C00
0C00
0C00
ENDCHAR
STARTCHAR tcaron
ENCODING 357
SWIDTH 367 0
DWIDTH 6 0
BBX 5 13 0 0
BITMAP
08
08
68
60
F8
60
60
60
60
60
60
20
38
ENDCHAR
STARTCHAR Tbar
ENCODING 358
SWIDTH 671 0
DWIDTH 11 0
BBX 10 12 0 0
BITMAP
FFC0
FFC0
0400
0400
0400
0400
3F80
0400
0400
0400
0400
0400
ENDCHAR
STARTCHAR tbar
ENCODING 359
SWIDTH 371 0
DWIDTH 6 0
BBX 5 11 0 0
BITMAP
20
20
F8
20
20
20
78
20
20
20
38
ENDCHAR
STARTCHAR Utilde
ENCODING 360
SWIDTH 781 0
DWIDTH 13 0
BBX 10 15 1 0
BITMAP
1F00
1600
0000
C040
C040
C040
C040
C040
C040
C040
C040
C040
C0C0
7FC0
3F80
ENDCHAR
STARTCHAR utilde
ENCODING 361
SWIDTH 588 0
DWIDTH 9 0
BBX 7 12 1 0
BITMAP
34
5C
00
C2
C2
C2
C2
C2
C2
C2
E6
7A
ENDCHAR
STARTCHAR Umacron
ENCODING 362
SWIDTH 781 0
DWIDTH 13 0
BBX 10 15 1 0
BITMAP
1E00
0000
0000
C040
C040
C040
C040
C040
C040
C040
C040
C040
C0C0
7FC0
3F80
ENDCHAR
STARTCHAR umacron
ENCODING 363
SWIDTH 588 0
DWIDTH 9 0
BBX 7 12 1 0
BITMAP
3C
00
00
C2
C2
C2
C2
C2
C2
C2
E6
7A
ENDCHAR
STARTCHAR Ubreve
ENCODING 364
SWIDTH 781 0
DWIDTH 13 0
BBX 10 15 1 0
BITMAP
1200
0E00
0000
C040
C040
C040
C040
C040
C040
C040
C040
C040
C0C0
7FC0
3F80
ENDCHAR
STARTCHAR ubreve
ENCODING 365
SWIDTH 588 0
DWIDTH 9 0
BBX 7 12 1 0
BITMAP
64
38
00
C2
C2
C2
C2
C2
C2
C2
E6
7A
ENDCHAR
STARTCHAR Uring
ENCODING 366
SWIDTH 781 0
DWIDTH 13 0
BBX 10 16 1 0
BITMAP
0E00
1200
0E00
0000
C040
C040
C040
C040
C040
C040
C040
C040
C040
C0C0
7FC0
3F80
ENDCHAR
STARTCHAR uring
ENCODING 367
SWIDTH 588 0
DWIDTH 9 0
BBX 7 13 1 0
BITMAP
38
28
38
00
C2
C2
C2
C2
C2
C2
C2
E6
7A
ENDCHAR
STARTCHAR Uhungarumlaut
ENCODING 368
SWIDTH 781 0
DWIDTH 13 0
BBX 10 15 1 0
BITMAP
0D80
1B00
0000
C040
C040
C040
C040
C040
C040
C040
C040
C040
C0C0
7FC0
3F80
ENDCHAR
STARTCHAR uhungarumlaut
ENCODING 369
SWIDTH 588 0
DWIDTH 9 0
BBX 7 12 1 0
BITMAP
1A
34
00
C2
C2
C2
C2
C2
C2
C2
E6
7A
ENDCHAR
STARTCHAR Uogonek
ENCODING 370
SWIDTH 781 0
DWIDTH 13 0
BBX 10 15 1 -3
BITMAP
C040
C040
C040
C040
C040
C040
C040
C040
C040
C0C0
7BC0
3F80
0100
0300
0380
ENDCHAR
STARTCHAR uogonek
ENCODING 371
SWIDTH 588 0
DWIDTH 9 0
BBX 8 12 1 -3
BITMAP
C2
C2
C2
C2
C2
C2
C2
E6
7A
02
04
07
ENDCHAR
STARTCHAR Wcircumflex
ENCODING 372
SWIDTH 1090 0
DWIDTH 17 0
BBX 17 15 0 0
BITMAP
01C000
016000
000000
C0C180
41C180
61C100
616100
236300
232300
323200
323600
161600
1E1400
1C1C00
0C1C00
ENDCHAR
STARTCHAR wcircumflex
ENCODING 373
SWIDTH 831 0
DWIDTH 13 0
BBX 13 12 0 0
BITMAP
0300
0580
0000
C318
4718
6510
6510
25B0
2CB0
38A0
38A0
18E0
ENDCHAR
STARTCHAR Ycircumflex
ENCODING 374
SWIDTH 712 0
DWIDTH 11 0
BBX 11 15 0 0
BITMAP
0E00
0B00
0000
C060
6040
20C0
3180
1980
1B00
0E00
0600
0600
0600
0600
0600
ENDCHAR
STARTCHAR ycircumflex
ENCODING 375
SWIDTH 546 0
DWIDTH 9 0
BBX 8 15 0 -3
BITMAP
1C
34
00
C1
43
63
62
26
34
14
1C
18
18
18
70
ENDCHAR
STARTCHAR Ydieresis
ENCODING 376
SWIDTH 712 0
DWIDTH 11 0
BBX 11 15 0 0
BITMAP
0B00
0B00
0000
C060
6040
20C0
3180
1980
1B00
0E00
0600
0600
0600
0600
0600
ENDCHAR
STARTCHAR Zacute
ENCODING 377
SWIDTH 671 0
DWIDTH 11 0
BBX 10 15 0 0
BITMAP
0200
0400
0000
7FC0
7FC0
0180
0300
0700
0600
0C00
1800
3000
6000
6000
FFC0
ENDCHAR
STARTCHAR zacute
ENCODING 378
SWIDTH 503 0
DWIDTH 8 0
BBX 6 12 1 0
BITMAP
08
10
00
FC
0C
08
18
30
60
C0
C0
FC
ENDCHAR
STARTCHAR Zdotaccent
ENCODING 379
SWIDTH 671 0
DWIDTH 11 0
BBX 10 15 0 0
BITMAP
0400
0400
0000
7FC0
7FC0
0180
0300
0700
0600
0C00
1800
3000
6000
6000
FFC0
ENDCHAR
STARTCHAR zdotaccent
ENCODING 380
SWIDTH 503 0
DWIDTH 8 0
BBX 6 12 1 0
BITMAP
30
30
00
FC
0C
08
18
30
60
C0
C0
FC
ENDCHAR
STARTCHAR Zcaron
ENCODING 381
SWIDTH 671 0
DWIDTH 11 0
BBX 10 15 0 0
BITMAP
1B00
0E00
0000
7FC0
7FC0
0180
0300
0700
0600
0C00
1800
3000
6000
6000
FFC0
ENDCHAR
STARTCHAR zcaron
ENCODING 382
SWIDTH 503 0
DWIDTH 8 0
BBX 6 12 1 0
BITMAP
48
30
00
FC
0C
08
18
30
60
C0
C0
FC
ENDCHAR
STARTCHAR uni018F
ENCODING 399
SWIDTH 784 0
DWIDTH 13 0
BBX 11 12 1 0
BITMAP
3F80
FFC0
C0C0
C060
0060
0060
FFE0
C060
C060
C040
7FC0
3F80
ENDCHAR
STARTCHAR florin
ENCODING 402
SWIDTH 650 0
DWIDTH 10 0
BBX 10 14 0 -2
BITMAP
03C0
07C0
0600
0600
0400
3F80
0C00
0C00
0C00
0C00
0800
0800
3800
F000
ENDCHAR
STARTCHAR uni01E2
ENCODING 482
SWIDTH 1129 0
DWIDTH 18 0
BBX 17 15 0 0
BITMAP
003C00
000000
000000
00FF80
01FF80
034000
024000
064000
0C7F80
187F80
184000
3FC000
604000
604000
C07F80
ENDCHAR
STARTCHAR uni01E3
ENCODING 483
SWIDTH 951 0
DWIDTH 15 0
BBX 13 11 1 0
BITMAP
0F80
0000
7DF0
C718
C208
0208
FFF8
8200
8208
C718
7DF0
ENDCHAR
STARTCHAR Aringacute
ENCODING 506
SWIDTH 758 0
DWIDTH 12 0
BBX 12 18 0 0
BITMAP
0300
0600
0700
0900
0F00
0000
0600
0F00
0F00
0980
1980
1080
30C0
30C0
3FE0
6060
4020
C030
ENDCHAR
STARTCHAR aringacute
ENCODING 507
SWIDTH 577 0
DWIDTH 9 0
BBX 7 14 1 0
BITMAP
08
00
38
28
10
7C
C6
C2
02
FE
82
82
C6
7A
ENDCHAR
STARTCHAR AEacute
ENCODING 508
SWIDTH 1129 0
DWIDTH 18 0
BBX 17 15 0 0
BITMAP
000C00
001800
000000
00FF80
01FF80
034000
024000
064000
0C7F80
187F80
184000
3FC000
604000
604000
C07F80
ENDCHAR
STARTCHAR aeacute
ENCODING 509
SWIDTH 951 0
DWIDTH 15 0
BBX 13 12 1 0
BITMAP
0180
0300
0000
7DF0
C718
C208
0208
FFF8
8200
8208
C718
7DF0
ENDCHAR
STARTCHAR Oslashacute
ENCODING 510
SWIDTH 804 0
DWIDTH 13 0
BBX 11 16 1 -1
BITMAP
0300
0600
0060
3FC0
7FC0
C1E0
C360
C260
C660
CC60
D860
D060
F060
7FC0
7F80
C000
ENDCHAR
STARTCHAR oslashacute
ENCODING 511
SWIDTH 612 0
DWIDTH 10 0
BBX 8 13 1 -1
BITMAP
0C
08
10
7F
E7
CF
8B
9B
B3
E3
E7
FE
80
ENDCHAR
STARTCHAR uni0218
ENCODING 536
SWIDTH 719 0
DWIDTH 12 0
BBX 10 16 1 -4
BITMAP
7F00
E380
C080
C080
C000
FF00
1F80
00C0
80C0
C0C0
E380
7F00
0000
0C00
0C00
0800
ENDCHAR
STARTCHAR uni0219
ENCODING 537
SWIDTH 559 0
DWIDTH 9 0
BBX 7 13 1 -4
BITMAP
7C
C6
86
C0
FE
06
82
C6
7C
00
10
10
10
ENDCHAR
STARTCHAR uni021A
ENCODING 538
SWIDTH 658 0
DWIDTH 11 0
BBX 10 16 0 -4
BITMAP
FFC0
FFC0
0C00
0C00
0C00
0C00
0C00
0C00
0C00
0C00
0C00
0C00
0000
0C00
0C00
0800
ENDCHAR
STARTCHAR uni021B
ENCODING 539
SWIDTH 367 0
DWIDTH 6 0
BBX 5 15 0 -4
BITMAP
60
60
F8
60
60
60
60
60
60
20
38
00
10
10
10
ENDCHAR
STARTCHAR uni0226
ENCODING 550
SWIDTH 758 0
DWIDTH 12 0
BBX 12 15 0 0
BITMAP
0600
0600
0000
0600
0F00
0F00
0980
1980
1080
30C0
30C0
3FE0
6060
4020
C030
ENDCHAR
STARTCHAR uni0227
ENCODING 551
SWIDTH 577 0
DWIDTH 9 0
BBX 7 12 1 0
BITMAP
10
10
00
7C
C6
C2
02
FE
82
82
C6
7A
ENDCHAR
STARTCHAR uni0232
ENCODING 562
SWIDTH 712 0
DWIDTH 11 0
BBX 11 15 0 0
BITMAP
0F00
0000
0000
C060
6040
20C0
3180
1980
1B00
0E00
0600
0600
0600
0600
0600
ENDCHAR
STARTCHAR uni0233
ENCODING 563
SWIDTH 546 0
DWIDTH 9 0
BBX 8 15 0 -3
BITMAP
3C
00
00
C1
43
63
62
26
34
14
1C
18
18
18
70
ENDCHAR
STARTCHAR uni0237
ENCODING 567
SWIDTH 228 0
DWIDTH 4 0
BBX 3 12 0 -3
BITMAP
60
60
60
60
60
60
60
60
60
60
60
C0
ENDCHAR
STARTCHAR uni0259
ENCODING 601
SWIDTH 594 0
DWIDTH 10 0
BBX 8 9 1 0
BITMAP
7C
C6
83
03
FF
83
83
C6
7C
ENDCHAR
STARTCHAR circumflex
ENCODING 710
SWIDTH 414 0
DWIDTH 7 0
BBX 4 2 1 10
BITMAP
60
D0
ENDCHAR
STARTCHAR caron
ENCODING 711
SWIDTH 406 0
DWIDTH 7 0
BBX 5 2 1 10
BITMAP
D8
70
ENDCHAR
STARTCHAR breve
ENCODING 728
SWIDTH 365 0
DWIDTH 6 0
BBX 4 2 1 9
BITMAP
90
F0
ENDCHAR
STARTCHAR dotaccent
ENCODING 729
SWIDTH 188 0
DWIDTH 3 0
BBX 1 2 1 10
BITMAP
80
80
ENDCHAR
STARTCHAR ring
ENCODING 730
SWIDTH 312 0
DWIDTH 5 0
BBX 3 3 1 9
BITMAP
E0
A0
E0
ENDCHAR
STARTCHAR ogonek
ENCODING 731
SWIDTH 247 0
DWIDTH 4 0
BBX 2 3 1 -3
BITMAP
80
80
C0
ENDCHAR
STARTCHAR tilde
ENCODING 732
SWIDTH 374 0
DWIDTH 6 0
BBX 4 2 1 9
BITMAP
D0
B0
ENDCHAR
STARTCHAR hungarumlaut
ENCODING 733
SWIDTH 460 0
DWIDTH 7 0
BBX 5 2 1 10
BITMAP
68
D8
ENDCHAR
STARTCHAR gravecomb
ENCODING 768
SWIDTH 0 0
DWIDTH 0 0
BBX 3 2 1 10
BITMAP
C0
60
ENDCHAR
STARTCHAR acutecomb
ENCODING 769
SWIDTH 0 0
DWIDTH 0 0
BBX 3 2 1 10
BITMAP
60
C0
ENDCHAR
STARTCHAR uni0302
ENCODING 770
SWIDTH 0 0
DWIDTH 0 0
BBX 4 2 1 10
BITMAP
60
D0
ENDCHAR
STARTCHAR tildecomb
ENCODING 771
SWIDTH 0 0
DWIDTH 0 0
BBX 4 2 1 9
BITMAP
D0
B0
ENDCHAR
STARTCHAR uni0304
ENCODING 772
SWIDTH 0 0
DWIDTH 0 0
BBX 4 1 1 10
BITMAP
F0
ENDCHAR
STARTCHAR uni0306
ENCODING 774
SWIDTH 0 0
DWIDTH 0 0
BBX 4 2 1 9
BITMAP
90
F0
ENDCHAR
STARTCHAR uni0307
ENCODING 775
SWIDTH 0 0
DWIDTH 0 0
BBX 1 2 1 10
BITMAP
80
80
ENDCHAR
STARTCHAR uni0308
ENCODING 776
SWIDTH 0 0
DWIDTH 0 0
BBX 4 2 1 10
BITMAP
90
90
ENDCHAR
STARTCHAR uni030A
ENCODING 778
SWIDTH 0 0
DWIDTH 0 0
BBX 3 3 1 9
BITMAP
E0
A0
E0
ENDCHAR
STARTCHAR uni030B
ENCODING 779
SWIDTH 0 0
DWIDTH 0 0
BBX 5 2 1 10
BITMAP
68
D8
ENDCHAR
STARTCHAR uni030C
ENCODING 780
SWIDTH 0 0
DWIDTH 0 0
BBX 5 2 1 10
BITMAP
D8
70
ENDCHAR
STARTCHAR uni0312
ENCODING 786
SWIDTH 0 0
DWIDTH 0 0
BBX 1 3 1 9
BITMAP
80
80
80
ENDCHAR
STARTCHAR dotbelowcomb
ENCODING 803
SWIDTH 0 0
DWIDTH 0 0
BBX 1 2 1 -3
BITMAP
80
80
ENDCHAR
STARTCHAR uni0326
ENCODING 806
SWIDTH 0 0
DWIDTH 0 0
BBX 1 3 1 -4
BITMAP
80
80
80
ENDCHAR
STARTCHAR uni0327
ENCODING 807
SWIDTH 0 0
DWIDTH 0 0
BBX 4 4 1 -3
BITMAP
40
60
90
E0
ENDCHAR
STARTCHAR uni0328
ENCODING 808
SWIDTH 0 0
DWIDTH 0 0
BBX 2 3 1 -3
BITMAP
80
80
C0
ENDCHAR
STARTCHAR uni0E3F
ENCODING 3647
SWIDTH 739 0
DWIDTH 12 0
BBX 10 14 1 -1
BITMAP
0C00
FF80
FF80
CCC0
CCC0
CC80
FF00
CD80
CCC0
CCC0
CCC0
CFC0
FF80
0C00
ENDCHAR
STARTCHAR Wgrave
ENCODING 7808
SWIDTH 1090 0
DWIDTH 17 0
BBX 17 15 0 0
BITMAP
018000
008000
000000
C0C180
41C180
61C100
616100
236300
232300
323200
323600
161600
1E1400
1C1C00
0C1C00
ENDCHAR
STARTCHAR wgrave
ENCODING 7809
SWIDTH 831 0
DWIDTH 13 0
BBX 13 12 0 0
BITMAP
0400
0600
0000
C318
4718
6510
6510
25B0
2CB0
38A0
38A0
18E0
ENDCHAR
STARTCHAR Wacute
ENCODING 7810
SWIDTH 1090 0
DWIDTH 17 0
BBX 17 15 0 0
BITMAP
006000
00C000
000000
C0C180
41C180
61C100
616100
236300
232300
323200
323600
161600
1E1400
1C1C00
0C1C00
ENDCHAR
STARTCHAR wacute
ENCODING 7811
SWIDTH 831 0
DWIDTH 13 0
BBX 13 12 0 0
BITMAP
0180
0300
0000
C318
4718
6510
6510
25B0
2CB0
38A0
38A0
18E0
ENDCHAR
STARTCHAR Wdieresis
ENCODING 7812
SWIDTH 1090 0
DWIDTH 17 0
BBX 17 15 0 0
BITMAP
016000
016000
000000
C0C180
41C180
61C100
616100
236300
232300
323200
323600
161600
1E1400
1C1C00
0C1C00
ENDCHAR
STARTCHAR wdieresis
ENCODING 7813
SWIDTH 831 0
DWIDTH 13 0
BBX 13 12 0 0
BITMAP
0580
0580
0000
C318
4718
6510
6510
25B0
2CB0
38A0
38A0
18E0
ENDCHAR
STARTCHAR uni1E9E
ENCODING 7838
SWIDTH 749 0
DWIDTH 12 0
BBX 10 12 1 0
BITMAP
3FC0
70C0
C180
C300
C600
CC00
DFC0
C0C0
C040
C040
C1C0
DF80
ENDCHAR
STARTCHAR uni1EA0
ENCODING 7840
SWIDTH 758 0
DWIDTH 12 0
BBX 12 15 0 -3
BITMAP
0600
0F00
0F00
0980
1980
1080
30C0
30C0
3FE0
6060
4020
C030
0000
0600
0600
ENDCHAR
STARTCHAR uni1EA1
ENCODING 7841
SWIDTH 577 0
DWIDTH 9 0
BBX 7 12 1 -3
BITMAP
7C
C6
C2
02
FE
82
82
C6
7A
00
10
10
ENDCHAR
STARTCHAR uni1EB8
ENCODING 7864
SWIDTH 661 0
DWIDTH 11 0
BBX 9 15 1 -3
BITMAP
FF80
FF80
C000
C000
C000
FF00
FF00
C000
C000
C000
C000
FF80
0000
0800
0800
ENDCHAR
STARTCHAR uni1EB9
ENCODING 7865
SWIDTH 594 0
DWIDTH 10 0
BBX 8 12 1 -3
BITMAP
7C
C6
83
83
FF
80
83
C6
7E
00
18
18
ENDCHAR
STARTCHAR uni1EBC
ENCODING 7868
SWIDTH 661 0
DWIDTH 11 0
BBX 9 15 1 0
BITMAP
3A00
2C00
0000
FF80
FF80
C000
C000
C000
FF00
FF00
C000
C000
C000
C000
FF80
ENDCHAR
STARTCHAR uni1EBD
ENCODING 7869
SWIDTH 594 0
DWIDTH 10 0
BBX 8 12 1 0
BITMAP
34
6C
00
7C
C6
83
83
FF
80
83
C6
7E
ENDCHAR
STARTCHAR uni1ECA
ENCODING 7882
SWIDTH 250 0
DWIDTH 4 0
BBX 2 15 1 -3
BITMAP
C0
C0
C0
C0
C0
C0
C0
C0
C0
C0
C0
C0
00
C0
C0
ENDCHAR
STARTCHAR uni1ECB
ENCODING 7883
SWIDTH 228 0
DWIDTH 4 0
BBX 2 15 1 -3
BITMAP
C0
C0
00
C0
C0
C0
C0
C0
C0
C0
C0
C0
00
C0
C0
ENDCHAR
STARTCHAR uni1ECC
ENCODING 7884
SWIDTH 803 0
DWIDTH 13 0
BBX 11 15 1 -3
BITMAP
3F80
7FC0
C060
C060
C060
C060
C060
C060
C060
C060
7FC0
3F80
0000
0400
0400
ENDCHAR
STARTCHAR uni1ECD
ENCODING 7885
SWIDTH 612 0
DWIDTH 10 0
BBX 8 12 1 -3
BITMAP
7E
E7
C3
83
83
83
C3
E7
7E
00
18
18
ENDCHAR
STARTCHAR uni1EE4
ENCODING 7908
SWIDTH 781 0
DWIDTH 13 0
BBX 10 15 1 -3
BITMAP
C040
C040
C040
C040
C040
C040
C040
C040
C040
C0C0
7FC0
3F80
0000
0C00
0C00
ENDCHAR
STARTCHAR uni1EE5
ENCODING 7909
SWIDTH 588 0
DWIDTH 9 0
BBX 7 12 1 -3
BITMAP
C2
C2
C2
C2
C2
C2
C2
E6
7A
00
10
10
ENDCHAR
STARTCHAR Ygrave
ENCODING 7922
SWIDTH 712 0
DWIDTH 11 0
BBX 11 15 0 0
BITMAP
0800
0400
0000
C060
6040
20C0
3180
1980
1B00
0E00
0600
0600
0600
0600
0600
ENDCHAR
STARTCHAR ygrave
ENCODING 7923
SWIDTH 546 0
DWIDTH 9 0
BBX 8 15 0 -3
BITMAP
30
18
00
C1
43
63
62
26
34
14
1C
18
18
18
70
ENDCHAR
STARTCHAR uni1EF8
ENCODING 7928
SWIDTH 712 0
DWIDTH 11 0
BBX 11 15 0 0
BITMAP
0D00
1700
0000
C060
6040
20C0
3180
1980
1B00
0E00
0600
0600
0600
0600
0600
ENDCHAR
STARTCHAR uni1EF9
ENCODING 7929
SWIDTH 546 0
DWIDTH 9 0
BBX 8 15 0 -3
BITMAP
3A
2C
00
C1
43
63
62
26
34
14
1C
18
18
18
70
ENDCHAR
STARTCHAR endash
ENCODING 8211
SWIDTH 720 0
DWIDTH 12 0
BBX 10 1 1 4
BITMAP
FFC0
ENDCHAR
STARTCHAR emdash
ENCODING 8212
SWIDTH 979 0
DWIDTH 16 0
BBX 14 1 1 4
BITMAP
FFFC
ENDCHAR
STARTCHAR quoteleft
ENCODING 8216
SWIDTH 229 0
DWIDTH 4 0
BBX 2 4 1 8
BITMAP
40
80
C0
C0
ENDCHAR
STARTCHAR quoteright
ENCODING 8217
SWIDTH 226 0
DWIDTH 4 0
BBX 2 4 1 8
BITMAP
C0
C0
40
80
ENDCHAR
STARTCHAR quotesinglbase
ENCODING 8218
SWIDTH 234 0
DWIDTH 4 0
BBX 2 4 1 -2
BITMAP
C0
C0
80
80
ENDCHAR
STARTCHAR quotedblleft
ENCODING 8220
SWIDTH 400 0
DWIDTH 6 0
BBX 4 4 1 8
BITMAP
50
90
D0
D0
ENDCHAR
STARTCHAR quotedblright
ENCODING 8221
SWIDTH 397 0
DWIDTH 6 0
BBX 5 4 1 8
BITMAP
D8
D8
50
90
ENDCHAR
STARTCHAR quotedblbase
ENCODING 8222
SWIDTH 404 0
DWIDTH 6 0
BBX 4 4 1 -2
BITMAP
D0
D0
90
90
ENDCHAR
STARTCHAR dagger
ENCODING 8224
SWIDTH 487 0
DWIDTH 8 0
BBX 7 14 0 -1
BITMAP
18
18
18
18
FE
18
18
18
18
18
18
18
18
18
ENDCHAR
STARTCHAR daggerdbl
ENCODING 8225
SWIDTH 541 0
DWIDTH 9 0
BBX 7 14 1 -1
BITMAP
10
10
10
10
FE
10
10
10
10
10
FE
10
10
10
ENDCHAR
STARTCHAR bullet
ENCODING 8226
SWIDTH 392 0
DWIDTH 6 0
BBX 4 4 1 4
BITMAP
60
F0
F0
70
ENDCHAR
STARTCHAR ellipsis
ENCODING 8230
SWIDTH 621 0
DWIDTH 10 0
BBX 8 2 1 0
BITMAP
DB
DB
ENDCHAR
STARTCHAR perthousand
ENCODING 8240
SWIDTH 1053 0
DWIDTH 17 0
BBX 15 12 1 0
BITMAP
F080
9100
9900
9A00
9200
F400
05FE
0932
0B32
1332
1132
21FE
ENDCHAR
STARTCHAR guilsinglleft
ENCODING 8249
SWIDTH 292 0
DWIDTH 5 0
BBX 3 7 1 1
BITMAP
60
40
C0
80
C0
40
60
ENDCHAR
STARTCHAR guilsinglright
ENCODING 8250
SWIDTH 292 0
DWIDTH 5 0
BBX 3 7 1 1
BITMAP
C0
C0
40
60
40
C0
80
ENDCHAR
STARTCHAR fraction
ENCODING 8260
SWIDTH 170 0
DWIDTH 3 0
BBX 7 12 -2 0
BITMAP
06
04
0C
08
18
10
30
20
60
40
C0
80
ENDCHAR
STARTCHAR uni2070
ENCODING 8304
SWIDTH 432 0
DWIDTH 7 0
BBX 5 6 1 7
BITMAP
F8
88
88
88
88
F8
ENDCHAR
STARTCHAR uni2074
ENCODING 8308
SWIDTH 417 0
DWIDTH 7 0
BBX 6 6 0 7
BITMAP
18
38
68
C8
FC
08
ENDCHAR
STARTCHAR uni2075
ENCODING 8309
SWIDTH 409 0
DWIDTH 7 0
BBX 5 6 1 7
BITMAP
F8
80
F8
88
88
F8
ENDCHAR
STARTCHAR uni2076
ENCODING 8310
SWIDTH 415 0
DWIDTH 7 0
BBX 5 6 1 7
BITMAP
F8
88
F8
88
88
F8
ENDCHAR
STARTCHAR uni2077
ENCODING 8311
SWIDTH 372 0
DWIDTH 6 0
BBX 6 6 0 7
BITMAP
FC
08
18
10
30
20
ENDCHAR
STARTCHAR uni2078
ENCODING 8312
SWIDTH 418 0
DWIDTH 7 0
BBX 5 6 1 7
BITMAP
F8
88
F0
88
88
F8
ENDCHAR
STARTCHAR uni2079
ENCODING 8313
SWIDTH 418 0
DWIDTH 7 0
BBX 5 6 1 7
BITMAP
F8
88
88
F8
88
F8
ENDCHAR
STARTCHAR uni2080
ENCODING 8320
SWIDTH 432 0
DWIDTH 7 0
BBX 5 7 1 -2
BITMAP
F8
88
88
88
88
88
F8
ENDCHAR
STARTCHAR uni2081
ENCODING 8321
SWIDTH 276 0
DWIDTH 4 0
BBX 4 6 0 -2
BITMAP
70
F0
30
30
30
30
ENDCHAR
STARTCHAR uni2082
ENCODING 8322
SWIDTH 412 0
DWIDTH 7 0
BBX 5 7 1 -2
BITMAP
F8
88
08
78
E0
80
F8
ENDCHAR
STARTCHAR uni2083
ENCODING 8323
SWIDTH 412 0
DWIDTH 7 0
BBX 5 7 1 -2
BITMAP
F8
88
08
30
08
88
F8
ENDCHAR
STARTCHAR uni2084
ENCODING 8324
SWIDTH 417 0
DWIDTH 7 0
BBX 6 5 0 -1
BITMAP
18
38
48
FC
08
ENDCHAR
STARTCHAR uni2085
ENCODING 8325
SWIDTH 409 0
DWIDTH 7 0
BBX 5 6 1 -2
BITMAP
F8
80
F8
08
88
F8
ENDCHAR
STARTCHAR uni2086
ENCODING 8326
SWIDTH 415 0
DWIDTH 7 0
BBX 5 7 1 -2
BITMAP
F8
88
80
F8
88
88
F8
ENDCHAR
STARTCHAR uni2087
ENCODING 8327
SWIDTH 372 0
DWIDTH 6 0
BBX 6 6 0 -2
BITMAP
FC
08
18
10
30
20
ENDCHAR
STARTCHAR uni2088
ENCODING 8328
SWIDTH 418 0
DWIDTH 7 0
BBX 5 7 1 -2
BITMAP
F8
88
88
F0
88
88
F8
ENDCHAR
STARTCHAR uni2089
ENCODING 8329
SWIDTH 418 0
DWIDTH 7 0
BBX 5 7 1 -2
BITMAP
F0
88
88
F8
08
98
F0
ENDCHAR
STARTCHAR Euro
ENCODING 8364
SWIDTH 811 0
DWIDTH 13 0
BBX 11 12 1 0
BITMAP
1FC0
3FE0
2060
6060
FF00
6000
6000
FF00
6020
2060
3FE0
1FC0
ENDCHAR
STARTCHAR uni20B9
ENCODING 8377
SWIDTH 723 0
DWIDTH 12 0
BBX 10 12 1 0
BITMAP
FFC0
0F00
0100
FFC0
0100
0700
FF00
0300
0180
0180
0180
0180
ENDCHAR
STARTCHAR uni20BA
ENCODING 8378
SWIDTH 698 0
DWIDTH 11 0
BBX 10 12 1 0
BITMAP
6000
6000
6200
6E00
7800
E600
FE00
70C0
E0C0
60C0
6F80
7F00
ENDCHAR
STARTCHAR uni20BD
ENCODING 8381
SWIDTH 786 0
DWIDTH 13 0
BBX 11 12 1 0
BITMAP
7FC0
7FC0
6060
6060
6060
6060
FFC0
FE00
6000
FF00
6000
6000
ENDCHAR
STARTCHAR uni20BF
ENCODING 8383
SWIDTH 734 0
DWIDTH 12 0
BBX 10 16 1 -2
BITMAP
1600
1600
FF80
FFC0
C0C0
C0C0
C080
FF00
C180
C0C0
C0C0
C0C0
C3C0
FF80
1600
1600
ENDCHAR
STARTCHAR trademark
ENCODING 8482
SWIDTH 990 0
DWIDTH 16 0
BBX 15 6 0 6
BITMAP
FD86
118A
11CA
115A
1172
1132
ENDCHAR
STARTCHAR oneeighth
ENCODING 8539
SWIDTH 843 0
DWIDTH 14 0
BBX 12 12 1 0
BITMAP
6100
A300
2200
2600
2400
2DE0
0B30
1B30
11E0
3330
2330
61E0
ENDCHAR
STARTCHAR threeeighths
ENCODING 8540
SWIDTH 957 0
DWIDTH 15 0
BBX 14 12 1 0
BITMAP
F840
88C0
0880
3180
0900
8B78
FACC
06CC
0478
0CCC
08CC
1878
ENDCHAR
STARTCHAR fiveeighths
ENCODING 8541
SWIDTH 951 0
DWIDTH 15 0
BBX 14 12 1 0
BITMAP
F840
80C0
F880
8980
0900
8B78
FACC
068C
0478
0C8C
088C
18F8
ENDCHAR
STARTCHAR seveneighths
ENCODING 8542
SWIDTH 846 0
DWIDTH 14 0
BBX 13 12 0 0
BITMAP
FC80
0D80
1900
1300
3200
26F0
0598
0D88
08F0
1988
1188
30F8
ENDCHAR
STARTCHAR arrowleft
ENCODING 8592
SWIDTH 808 0
DWIDTH 13 0
BBX 11 9 1 1
BITMAP
1C00
3800
7000
FFE0
FFE0
6000
3000
1800
0C00
ENDCHAR
STARTCHAR arrowup
ENCODING 8593
SWIDTH 623 0
DWIDTH 10 0
BBX 8 12 1 0
BITMAP
10
18
3C
7E
DB
99
18
18
18
18
18
18
ENDCHAR
STARTCHAR arrowright
ENCODING 8594
SWIDTH 808 0
DWIDTH 13 0
BBX 11 9 1 1
BITMAP
0600
0300
0180
FFC0
FFE0
00C0
0180
0300
0600
ENDCHAR
STARTCHAR arrowdown
ENCODING 8595
SWIDTH 625 0
DWIDTH 10 0
BBX 8 12 1 0
BITMAP
18
18
18
18
18
18
99
DB
7E
3C
18
10
ENDCHAR
STARTCHAR uni2196
ENCODING 8598
SWIDTH 641 0
DWIDTH 10 0
BBX 9 9 1 3
BITMAP
FE00
C000
E000
B000
9800
8E00
8700
0380
0100
ENDCHAR
STARTCHAR uni2197
ENCODING 8599
SWIDTH 641 0
DWIDTH 10 0
BBX 8 9 1 3
BITMAP
3F
43
07
0D
19
31
61
C0
80
ENDCHAR
STARTCHAR uni2198
ENCODING 8600
SWIDTH 629 0
DWIDTH 10 0
BBX 8 9 1 0
BITMAP
80
C0
61
31
19
0D
07
03
7F
ENDCHAR
STARTCHAR uni2199
ENCODING 8601
SWIDTH 629 0
DWIDTH 10 0
BBX 8 9 1 0
BITMAP
01
03
86
8C
98
B0
E0
C0
FE
ENDCHAR
STARTCHAR partialdiff
ENCODING 8706
SWIDTH 617 0
DWIDTH 10 0
BBX 8 12 1 0
BITMAP
78
1E
02
03
FF
C3
83
83
83
C3
E6
7E
ENDCHAR
STARTCHAR uni2206
ENCODING 8710
SWIDTH 791 0
DWIDTH 13 0
BBX 12 12 0 0
BITMAP
0700
0700
0D80
0980
18C0
10C0
3040
3060
6020
6030
C030
FFF0
ENDCHAR
STARTCHAR product
ENCODING 8719
SWIDTH 790 0
DWIDTH 13 0
BBX 12 15 0 -3
BITMAP
FFF0
FFF0
2060
2060
2060
2060
2060
2060
2060
2060
2060
2060
2060
2060
2060
ENDCHAR
STARTCHAR summation
ENCODING 8721
SWIDTH 626 0
DWIDTH 10 0
BBX 10 15 0 -3
BITMAP
7F80
7F80
7000
3000
1800
0C00
0600
0600
0600
0C00
1800
3000
6000
E000
FFC0
ENDCHAR
STARTCHAR minus
ENCODING 8722
SWIDTH 597 0
DWIDTH 10 0
BBX 8 1 1 5
BITMAP
FF
ENDCHAR
STARTCHAR radical
ENCODING 8730
SWIDTH 699 0
DWIDTH 11 0
BBX 10 15 1 -2
BITMAP
00C0
0080
0080
0180
0180
0100
0300
0300
C300
E200
6600
3600
3400
1C00
1C00
ENDCHAR
STARTCHAR infinity
ENCODING 8734
SWIDTH 801 0
DWIDTH 13 0
BBX 11 5 1 3
BITMAP
71C0
DB60
8C20
8E60
FBC0
ENDCHAR
STARTCHAR integral
ENCODING 8747
SWIDTH 317 0
DWIDTH 5 0
BBX 5 15 0 -3
BITMAP
38
38
20
20
20
20
20
20
20
20
20
20
20
E0
E0
ENDCHAR
STARTCHAR approxequal
ENCODING 8776
SWIDTH 597 0
DWIDTH 10 0
BBX 8 6 1 2
BITMAP
F3
9E
00
73
FB
8E
ENDCHAR
STARTCHAR notequal
ENCODING 8800
SWIDTH 597 0
DWIDTH 10 0
BBX 8 10 1 0
BITMAP
06
04
0C
FF
18
10
FF
20
60
40
ENDCHAR
STARTCHAR lessequal
ENCODING 8804
SWIDTH 597 0
DWIDTH 10 0
BBX 8 10 1 0
BITMAP
03
0F
38
E0
E0
38
0F
01
00
FF
ENDCHAR
STARTCHAR greaterequal
ENCODING 8805
SWIDTH 597 0
DWIDTH 10 0
BBX 8 10 1 0
BITMAP
80
F0
3C
07
07
3C
E0
80
00
FF
ENDCHAR
STARTCHAR lozenge
ENCODING 9674
SWIDTH 687 0
DWIDTH 11 0
BBX 9 12 1 0
BITMAP
1C00
1C00
3600
6300
6300
C180
C180
6300
6300
3600
1400
1C00
ENDCHAR
STARTCHAR fi
ENCODING 64257
SWIDTH 563 0
DWIDTH 9 0
BBX 8 12 0 0
BITMAP
3B
23
20
FB
23
23
23
23
23
23
23
23
ENDCHAR
STARTCHAR fl
ENCODING 64258
SWIDTH 563 0
DWIDTH 9 0
BBX 8 12 0 0
BITMAP
3B
23
23
FB
23
23
23
23
23
23
23
23
ENDCHAR
STARTCHAR .notdef
ENCODING -1
SWIDTH 696 0
DWIDTH 11 0
BBX 9 12 1 0
BITMAP
FF80
C180
E380
B280
9480
9C80
9C80
9480
B280
E380
C180
FF80
ENDCHAR
STARTCHAR uni004A0301
ENCODING -1
SWIDTH 643 0
DWIDTH 10 0
BBX 10 15 0 0
BITMAP
0040
0080
0000
0080
0080
0080
0080
0080
0080
0080
C080
C080
4180
7F80
3F00
ENDCHAR
STARTCHAR i.loclTRK
ENCODING -1
SWIDTH 228 0
DWIDTH 4 0
BBX 2 12 1 0
BITMAP
C0
C0
00
C0
C0
C0
C0
C0
C0
C0
C0
C0
ENDCHAR
STARTCHAR uni006A0301
ENCODING -1
SWIDTH 228 0
DWIDTH 4 0
BBX 4 15 0 -3
BITMAP
30
60
00
60
60
60
60
60
60
60
60
60
60
60
C0
ENDCHAR
STARTCHAR a.ss01
ENCODING -1
SWIDTH 582 0
DWIDTH 9 0
BBX 7 9 1 0
BITMAP
7C
C6
C2
02
FE
82
82
C6
7A
ENDCHAR
STARTCHAR aacute.ss01
ENCODING -1
SWIDTH 582 0
DWIDTH 9 0
BBX 7 12 1 0
BITMAP
0C
18
00
7C
C6
C2
02
FE
82
82
C6
FA
ENDCHAR
STARTCHAR abreve.ss01
ENCODING -1
SWIDTH 582 0
DWIDTH 9 0
BBX 7 12 1 0
BITMAP
64
38
00
7C
C6
C2
02
FE
82
82
C6
FA
ENDCHAR
STARTCHAR acircumflex.ss01
ENCODING -1
SWIDTH 582 0
DWIDTH 9 0
BBX 7 12 1 0
BITMAP
18
2C
00
7C
C6
C2
02
FE
82
82
C6
FA
ENDCHAR
STARTCHAR adieresis.ss01
ENCODING -1
SWIDTH 582 0
DWIDTH 9 0
BBX 7 12 1 0
BITMAP
6C
6C
00
7C
C6
C2
02
FE
82
82
C6
FA
ENDCHAR
STARTCHAR uni0227.ss01
ENCODING -1
SWIDTH 582 0
DWIDTH 9 0
BBX 7 12 1 0
BITMAP
10
10
00
7C
C6
C2
02
FE
82
82
C6
FA
ENDCHAR
STARTCHAR uni1EA1.ss01
ENCODING -1
SWIDTH 582 0
DWIDTH 9 0
BBX 7 12 1 -3
BITMAP
7C
C6
C2
02
FE
82
82
C6
FA
00
10
10
ENDCHAR
STARTCHAR agrave.ss01
ENCODING -1
SWIDTH 582 0
DWIDTH 9 0
BBX 7 12 1 0
BITMAP
20
30
00
7C
C6
C2
02
FE
82
82
C6
FA
ENDCHAR
STARTCHAR amacron.ss01
ENCODING -1
SWIDTH 582 0
DWIDTH 9 0
BBX 7 11 1 0
BITMAP
3C
00
7C
C6
C2
02
FE
82
82
C6
FA
ENDCHAR
STARTCHAR aogonek.ss01
ENCODING -1
SWIDTH 582 0
DWIDTH 9 0
BBX 8 12 1 -3
BITMAP
7C
C6
C2
02
FE
82
82
C6
FA
06
04
07
ENDCHAR
STARTCHAR aring.ss01
ENCODING -1
SWIDTH 582 0
DWIDTH 9 0
BBX 7 13 1 0
BITMAP
38
28
38
00
7C
C6
C2
02
FE
82
82
C6
FA
ENDCHAR
STARTCHAR aringacute.ss01
ENCODING -1
SWIDTH 582 0
DWIDTH 9 0
BBX 7 16 1 0
BITMAP
0C
18
00
38
28
38
00
7C
C6
C2
02
FE
82
82
C6
FA
ENDCHAR
STARTCHAR atilde.ss01
ENCODING -1
SWIDTH 582 0
DWIDTH 9 0
BBX 7 12 1 0
BITMAP
34
5C
00
7C
C6
C2
02
FE
82
82
C6
FA
ENDCHAR
STARTCHAR f.ss01
ENCODING -1
SWIDTH 335 0
DWIDTH 5 0
BBX 5 12 0 0
BITMAP
38
20
20
F8
20
20
20
20
20
20
20
20
ENDCHAR
STARTCHAR j.ss01
ENCODING -1
SWIDTH 228 0
DWIDTH 4 0
BBX 3 15 0 -3
BITMAP
60
60
00
60
60
60
60
60
60
60
60
60
60
60
C0
ENDCHAR
STARTCHAR uni0237.ss01
ENCODING -1
SWIDTH 228 0
DWIDTH 4 0
BBX 3 12 0 -3
BITMAP
60
60
60
60
60
60
60
60
60
60
60
C0
ENDCHAR
STARTCHAR uni006A0301.ss01
ENCODING -1
SWIDTH 228 0
DWIDTH 4 0
BBX 4 15 0 -3
BITMAP
30
60
00
60
60
60
60
60
60
60
60
60
60
60
C0
ENDCHAR
STARTCHAR jcircumflex.ss01
ENCODING -1
SWIDTH 228 0
DWIDTH 4 0
BBX 4 15 0 -3
BITMAP
60
B0
00
60
60
60
60
60
60
60
60
60
60
60
C0
ENDCHAR
STARTCHAR r.ss01
ENCODING -1
SWIDTH 494 0
DWIDTH 8 0
BBX 7 9 1 0
BITMAP
FC
EE
C6
C6
C0
C0
C0
C0
C0
ENDCHAR
STARTCHAR racute.ss01
ENCODING -1
SWIDTH 494 0
DWIDTH 8 0
BBX 7 12 1 0
BITMAP
08
10
00
FC
EE
C6
C6
C0
C0
C0
C0
C0
ENDCHAR
STARTCHAR rcaron.ss01
ENCODING -1
SWIDTH 494 0
DWIDTH 8 0
BBX 7 12 1 0
BITMAP
6C
38
00
FC
C6
C6
C6
C0
C0
C0
C0
C0
ENDCHAR
STARTCHAR uni0157.ss01
ENCODING -1
SWIDTH 494 0
DWIDTH 8 0
BBX 7 13 1 -4
BITMAP
FC
EE
C6
C6
C0
C0
C0
C0
C0
00
C0
C0
80
ENDCHAR
STARTCHAR t.ss01
ENCODING -1
SWIDTH 475 0
DWIDTH 8 0
BBX 7 11 0 0
BITMAP
20
20
FE
20
20
20
20
22
22
36
3C
ENDCHAR
STARTCHAR tbar.ss01
ENCODING -1
SWIDTH 488 0
DWIDTH 8 0
BBX 6 11 1 0
BITMAP
40
40
FC
40
40
F0
40
44
44
6C
7C
ENDCHAR
STARTCHAR tcaron.ss01
ENCODING -1
SWIDTH 475 0
DWIDTH 8 0
BBX 7 13 0 0
BITMAP
08
08
28
20
FE
20
20
20
20
22
22
36
3C
ENDCHAR
STARTCHAR uni0163.ss01
ENCODING -1
SWIDTH 475 0
DWIDTH 8 0
BBX 7 14 0 -3
BITMAP
20
20
FE
20
20
20
20
22
22
36
3C
08
34
1C
ENDCHAR
STARTCHAR uni021B.ss01
ENCODING -1
SWIDTH 475 0
DWIDTH 8 0
BBX 7 15 0 -4
BITMAP
20
20
FE
20
20
20
20
22
22
36
3C
00
08
08
08
ENDCHAR
STARTCHAR y.ss01
ENCODING -1
SWIDTH 546 0
DWIDTH 9 0
BBX 8 12 0 -3
BITMAP
C1
43
63
62
26
34
14
1C
18
18
10
70
ENDCHAR
STARTCHAR yacute.ss01
ENCODING -1
SWIDTH 546 0
DWIDTH 9 0
BBX 8 15 0 -3
BITMAP
04
0C
00
C1
43
63
62
26
34
14
1C
18
18
10
70
ENDCHAR
STARTCHAR ycircumflex.ss01
ENCODING -1
SWIDTH 546 0
DWIDTH 9 0
BBX 8 15 0 -3
BITMAP
1C
34
00
C1
43
63
62
26
34
14
1C
18
18
10
70
ENDCHAR
STARTCHAR ydieresis.ss01
ENCODING -1
SWIDTH 546 0
DWIDTH 9 0
BBX 8 15 0 -3
BITMAP
36
36
00
C1
43
63
62
26
34
14
1C
18
18
10
70
ENDCHAR
STARTCHAR ygrave.ss01
ENCODING -1
SWIDTH 546 0
DWIDTH 9 0
BBX 8 15 0 -3
BITMAP
30
18
00
C1
43
63
62
26
34
14
1C
18
18
10
70
ENDCHAR
STARTCHAR uni0233.ss01
ENCODING -1
SWIDTH 546 0
DWIDTH 9 0
BBX 8 15 0 -3
BITMAP
3C
00
00
C1
43
63
62
26
34
14
1C
18
18
10
70
ENDCHAR
STARTCHAR uni1EF9.ss01
ENCODING -1
SWIDTH 546 0
DWIDTH 9 0
BBX 8 15 0 -3
BITMAP
3A
2C
00
C1
43
63
62
26
34
14
1C
18
18
10
70
ENDCHAR
STARTCHAR fi.ss01
ENCODING -1
SWIDTH 563 0
DWIDTH 9 0
BBX 8 12 0 0
BITMAP
3B
23
20
FB
23
23
23
23
23
23
23
23
ENDCHAR
STARTCHAR fl.ss01
ENCODING -1
SWIDTH 563 0
DWIDTH 9 0
BBX 8 12 0 0
BITMAP
3B
23
23
FB
23
23
23
23
23
23
23
23
ENDCHAR
STARTCHAR ordfeminine.ss01
ENCODING -1
SWIDTH 490 0
DWIDTH 8 0
BBX 6 7 1 5
BITMAP
78
8C
04
F4
8C
8C
F4
ENDCHAR
STARTCHAR zero.tf
ENCODING -1
SWIDTH 722 0
DWIDTH 12 0
BBX 10 12 1 0
BITMAP
3F00
7F80
C080
C0C0
C0C0
80C0
80C0
80C0
C0C0
C080
7F80
3F00
ENDCHAR
STARTCHAR one.tf
ENCODING -1
SWIDTH 722 0
DWIDTH 12 0
BBX 10 12 1 0
BITMAP
0C00
3C00
7400
C400
0400
0400
0400
0400
0400
0400
FFC0
FFC0
ENDCHAR
STARTCHAR two.tf
ENCODING -1
SWIDTH 722 0
DWIDTH 12 0
BBX 10 12 1 0
BITMAP
7F00
FF80
C0C0
C0C0
00C0
0180
3F00
F000
C000
C000
C000
FFC0
ENDCHAR
STARTCHAR three.tf
ENCODING -1
SWIDTH 722 0
DWIDTH 12 0
BBX 10 12 1 0
BITMAP
7F00
FF80
C080
C080
0080
1F00
1F80
00C0
C0C0
C0C0
FF80
7F00
ENDCHAR
STARTCHAR four.tf
ENCODING -1
SWIDTH 722 0
DWIDTH 12 0
BBX 10 12 1 0
BITMAP
0300
0700
0D00
1900
3100
6100
6100
C100
FFC0
FFC0
0100
0100
ENDCHAR
STARTCHAR five.tf
ENCODING -1
SWIDTH 722 0
DWIDTH 12 0
BBX 10 12 1 0
BITMAP
FF80
FF80
C000
C000
FF00
FF80
C0C0
00C0
C0C0
C0C0
FF80
7F00
ENDCHAR
STARTCHAR six.tf
ENCODING -1
SWIDTH 722 0
DWIDTH 12 0
BBX 10 12 1 0
BITMAP
3F00
7F80
C080
C0C0
C000
FF00
FF80
C0C0
C0C0
C0C0
7F80
3F00
ENDCHAR
STARTCHAR seven.tf
ENCODING -1
SWIDTH 722 0
DWIDTH 12 0
BBX 10 12 1 0
BITMAP
FFC0
FFC0
0180
0100
0300
0600
0600
0C00
0C00
1800
1000
3000
ENDCHAR
STARTCHAR eight.tf
ENCODING -1
SWIDTH 722 0
DWIDTH 12 0
BBX 10 12 1 0
BITMAP
7F00
FF80
C080
C080
C080
7F00
7F80
C0C0
C0C0
C0C0
FF80
7F00
ENDCHAR
STARTCHAR nine.tf
ENCODING -1
SWIDTH 722 0
DWIDTH 12 0
BBX 10 12 1 0
BITMAP
7F00
FF80
C080
80C0
C0C0
FFC0
7EC0
00C0
C080
C080
FF80
7F00
ENDCHAR
STARTCHAR zero.dnom
ENCODING -1
SWIDTH 432 0
DWIDTH 7 0
BBX 5 6 1 0
BITMAP
F8
88
88
88
88
F8
ENDCHAR
STARTCHAR one.dnom
ENCODING -1
SWIDTH 276 0
DWIDTH 4 0
BBX 4 6 0 0
BITMAP
70
F0
30
30
30
30
ENDCHAR
STARTCHAR two.dnom
ENCODING -1
SWIDTH 412 0
DWIDTH 7 0
BBX 5 6 1 0
BITMAP
F8
88
18
F0
80
F8
ENDCHAR
STARTCHAR three.dnom
ENCODING -1
SWIDTH 412 0
DWIDTH 7 0
BBX 5 6 1 0
BITMAP
F8
88
30
08
88
F8
ENDCHAR
STARTCHAR four.dnom
ENCODING -1
SWIDTH 417 0
DWIDTH 7 0
BBX 6 6 0 0
BITMAP
18
38
68
C8
FC
08
ENDCHAR
STARTCHAR five.dnom
ENCODING -1
SWIDTH 409 0
DWIDTH 7 0
BBX 5 6 1 0
BITMAP
F8
80
F8
08
88
F8
ENDCHAR
STARTCHAR six.dnom
ENCODING -1
SWIDTH 415 0
DWIDTH 7 0
BBX 5 6 1 0
BITMAP
F8
88
F8
88
88
F8
ENDCHAR
STARTCHAR seven.dnom
ENCODING -1
SWIDTH 372 0
DWIDTH 6 0
BBX 6 6 0 0
BITMAP
FC
08
18
10
30
60
ENDCHAR
STARTCHAR eight.dnom
ENCODING -1
SWIDTH 418 0
DWIDTH 7 0
BBX 5 7 1 0
BITMAP
F8
88
88
F0
88
88
F8
ENDCHAR
STARTCHAR nine.dnom
ENCODING -1
SWIDTH 418 0
DWIDTH 7 0
BBX 5 6 1 0
BITMAP
F8
88
F8
08
98
F0
ENDCHAR
STARTCHAR zero.numr
ENCODING -1
SWIDTH 432 0
DWIDTH 7 0
BBX 5 7 1 5
BITMAP
F8
88
88
88
88
88
F8
ENDCHAR
STARTCHAR one.numr
ENCODING -1
SWIDTH 276 0
DWIDTH 4 0
BBX 4 6 0 6
BITMAP
30
F0
30
30
30
30
ENDCHAR
STARTCHAR two.numr
ENCODING -1
SWIDTH 412 0
DWIDTH 7 0
BBX 5 7 1 5
BITMAP
F8
88
08
78
E0
80
F8
ENDCHAR
STARTCHAR three.numr
ENCODING -1
SWIDTH 412 0
DWIDTH 7 0
BBX 5 7 1 5
BITMAP
F8
88
08
30
08
88
F8
ENDCHAR
STARTCHAR four.numr
ENCODING -1
SWIDTH 417 0
DWIDTH 7 0
BBX 6 6 0 6
BITMAP
18
38
68
48
FC
08
ENDCHAR
STARTCHAR five.numr
ENCODING -1
SWIDTH 409 0
DWIDTH 7 0
BBX 5 7 1 5
BITMAP
F8
80
F8
88
08
88
F8
ENDCHAR
STARTCHAR six.numr
ENCODING -1
SWIDTH 415 0
DWIDTH 7 0
BBX 5 7 1 5
BITMAP
F8
88
80
F8
88
88
F8
ENDCHAR
STARTCHAR seven.numr
ENCODING -1
SWIDTH 372 0
DWIDTH 6 0
BBX 6 6 0 6
BITMAP
FC
08
18
10
30
20
ENDCHAR
STARTCHAR eight.numr
ENCODING -1
SWIDTH 418 0
DWIDTH 7 0
BBX 5 7 1 5
BITMAP
F8
88
88
F0
88
88
F8
ENDCHAR
STARTCHAR nine.numr
ENCODING -1
SWIDTH 418 0
DWIDTH 7 0
BBX 5 7 1 5
BITMAP
F0
88
88
F8
08
98
F0
ENDCHAR
STARTCHAR uni030C.alt
ENCODING -1
SWIDTH 0 0
DWIDTH 0 0
BBX 1 3 1 9
BITMAP
80
80
80
ENDCHAR
STARTCHAR caron.alt
ENCODING -1
SWIDTH 194 0
DWIDTH 3 0
BBX 1 3 1 9
BITMAP
80
80
80
ENDCHAR
STARTCHAR ringacutecomb
ENCODING -1
SWIDTH 337 0
DWIDTH 5 0
BBX 3 5 1 9
BITMAP
20
40
E0
A0
E0
ENDCHAR
ENDFONT
